<?xml version="1.0" encoding="utf-8"?>
<!-- Generator: Adobe Illustrator 18.1.1, SVG Export Plug-In . SVG Version: 6.00 Build 0)  -->
<svg version="1.1" id="Calque_1" xmlns="http://www.w3.org/2000/svg" xmlns:xlink="http://www.w3.org/1999/xlink" x="0px" y="0px"
	 viewBox="0 0 365.3 127.5" enable-background="new 0 0 365.3 127.5" xml:space="preserve">
<g>
	<path d="M0,10h3.5l8.8,24l3.2,9.1h0.3l3-9.1l8.8-24h3.5v49.8h-2.4V22.4c0-1.6,0-3.2,0.1-4.8c0-1.7,0.1-3.3,0.2-4.8h-0.2L25.8,21
		l-9.3,25h-2L5.1,21l-2.9-8.3H2c0,1.6,0.1,3.2,0.2,4.8c0.1,1.7,0.1,3.3,0.1,4.8v37.3H0V10z"/>
	<path d="M67.4,27.8H47.1L40.8,10h-2.4l17.8,49.8h2.1L76.1,10h-2.6L67.4,27.8z M66.6,29.9l-3.5,10c-1.1,3-2,5.9-3,8.6
		c-0.9,2.7-1.8,5.6-2.8,8.8h-0.3c-0.9-3.1-1.8-6-2.8-8.8c-0.9-2.7-1.9-5.6-3-8.6l-3.5-10H66.6z"/>
	<path d="M86.4,10h29v2.1H88.8v20.1h22.3v2.1H88.8v23.4h27.3v2.1H86.4V10z"/>
	<path d="M130,10h2.3v47.7h26.6v2.1H130V10z"/>
	<path d="M167.7,51.4c1.9,2.1,4.2,3.8,6.9,5.1c2.7,1.3,5.6,1.9,8.8,1.9c2.1,0,4-0.3,5.7-0.8c1.7-0.5,3.2-1.3,4.4-2.2
		c1.2-0.9,2.1-2,2.8-3.4c0.7-1.3,1-2.8,1-4.4c0-1.7-0.3-3.1-0.8-4.2c-0.5-1.1-1.2-2.1-2.1-2.9c-0.9-0.8-2-1.5-3.2-2.1
		c-1.2-0.6-2.5-1.2-3.8-1.7l-7.7-3.5c-1.2-0.5-2.4-1-3.6-1.7c-1.3-0.7-2.4-1.4-3.5-2.4c-1.1-0.9-2-2.1-2.7-3.4
		c-0.7-1.3-1.1-2.9-1.1-4.8c0-1.8,0.4-3.4,1.1-4.8c0.8-1.5,1.8-2.7,3.1-3.8c1.3-1.1,2.9-1.9,4.7-2.5c1.8-0.6,3.8-0.9,5.9-0.9
		c3.2,0,6,0.6,8.4,1.8c2.4,1.2,4.4,2.6,5.9,4.1l-1.5,1.7c-1.5-1.6-3.3-2.9-5.5-3.8c-2.2-1-4.6-1.4-7.3-1.4c-3.7,0-6.7,0.9-9,2.6
		c-2.3,1.7-3.4,4-3.4,6.9c0,1.6,0.3,2.9,0.9,4c0.6,1.1,1.4,2,2.4,2.8c1,0.8,2,1.4,3.1,2c1.1,0.5,2.1,1,3.1,1.4l7.7,3.5
		c1.5,0.6,2.9,1.3,4.2,2c1.4,0.7,2.6,1.6,3.6,2.6c1.1,1,1.9,2.2,2.5,3.6c0.6,1.4,0.9,3,0.9,4.9c0,1.9-0.4,3.7-1.2,5.2
		c-0.8,1.6-1.9,3-3.3,4.2c-1.4,1.2-3.1,2.1-5.1,2.8c-2,0.7-4.2,1-6.7,1c-3.9,0-7.2-0.7-10.1-2.1c-2.9-1.4-5.3-3.2-7.2-5.4
		L167.7,51.4z"/>
	<path d="M223.2,12.1h-17.7V10h37.7v2.1h-17.7v47.7h-2.4V12.1z"/>
	<path d="M280.6,59.7l-14-23.5h-11.2v23.5h-2.4V10h13.7c2.5,0,4.7,0.2,6.6,0.7c2,0.5,3.6,1.2,5,2.3c1.4,1,2.5,2.4,3.2,4
		c0.8,1.6,1.1,3.6,1.1,5.9c0,4-1.2,7.1-3.6,9.3c-2.4,2.2-5.7,3.6-9.8,4l14.2,23.7H280.6z M265.8,34.1c4.6,0,8.2-0.9,10.6-2.8
		c2.5-1.8,3.7-4.7,3.7-8.6c0-3.9-1.2-6.7-3.7-8.3c-2.5-1.6-6-2.4-10.6-2.4h-10.4v22H265.8z"/>
	<path d="M308,60.7c-2.7,0-5.1-0.6-7.4-1.8c-2.3-1.2-4.2-3-5.8-5.2c-1.6-2.3-2.9-5-3.8-8.2c-0.9-3.2-1.4-6.8-1.4-10.7
		s0.5-7.5,1.4-10.6c0.9-3.2,2.2-5.9,3.8-8.1c1.6-2.2,3.6-3.9,5.8-5.1c2.3-1.2,4.7-1.8,7.4-1.8c2.7,0,5.1,0.6,7.4,1.8
		c2.3,1.2,4.2,2.9,5.8,5.1c1.6,2.2,2.9,4.9,3.8,8.1c0.9,3.2,1.4,6.7,1.4,10.6s-0.5,7.5-1.4,10.7c-0.9,3.2-2.2,5.9-3.8,8.2
		c-1.6,2.3-3.6,4-5.8,5.2C313.1,60,310.7,60.7,308,60.7z M308,58.4c2.4,0,4.5-0.6,6.5-1.7c1.9-1.1,3.6-2.7,5-4.8
		c1.4-2.1,2.5-4.6,3.2-7.5c0.8-2.9,1.1-6.2,1.1-9.7c0-3.6-0.4-6.8-1.1-9.7c-0.8-2.9-1.8-5.4-3.2-7.4c-1.4-2-3.1-3.6-5-4.7
		c-1.9-1.1-4.1-1.6-6.5-1.6c-2.4,0-4.5,0.5-6.4,1.6c-1.9,1.1-3.6,2.6-5,4.7c-1.4,2-2.5,4.5-3.2,7.4c-0.8,2.9-1.1,6.1-1.1,9.7
		c0,3.6,0.4,6.8,1.1,9.7c0.8,2.9,1.8,5.4,3.2,7.5c1.4,2.1,3.1,3.7,5,4.8C303.5,57.8,305.6,58.4,308,58.4z M302.3,4.8
		c-0.7,0-1.3-0.2-1.7-0.6c-0.5-0.4-0.7-1-0.7-1.8c0-0.8,0.2-1.3,0.7-1.8c0.5-0.4,1-0.6,1.7-0.6s1.3,0.2,1.7,0.6
		c0.5,0.4,0.7,1,0.7,1.8c0,0.8-0.2,1.3-0.7,1.8C303.6,4.6,303,4.8,302.3,4.8z M313.7,4.8c-0.7,0-1.3-0.2-1.7-0.6
		c-0.5-0.4-0.7-1-0.7-1.8c0-0.8,0.2-1.3,0.7-1.8c0.5-0.4,1-0.6,1.7-0.6c0.7,0,1.3,0.2,1.7,0.6c0.5,0.4,0.7,1,0.7,1.8
		c0,0.8-0.2,1.3-0.7,1.8C315,4.6,314.4,4.8,313.7,4.8z"/>
	<path d="M334.3,10h3.5l8.8,24l3.2,9.1h0.3l3-9.1l8.8-24h3.5v49.8h-2.4V22.4c0-1.6,0-3.2,0.1-4.8c0-1.7,0.1-3.3,0.2-4.8h-0.2
		l-2.7,8.3l-9.3,25h-2l-9.4-25l-2.9-8.3h-0.2c0,1.6,0.1,3.2,0.2,4.8c0.1,1.7,0.1,3.3,0.1,4.8v37.3h-2.3V10z"/>
	<path d="M0,77.7h2.3v47.7h26.6v2.1H0V77.7z"/>
	<path d="M66.2,109.6H45.9l-6.3,17.8h-2.4l17.8-49.8h2.1L75,127.5h-2.6L66.2,109.6z M65.5,107.5l-3.5-10c-1.1-3-2-5.9-3-8.6
		c-0.9-2.7-1.8-5.6-2.8-8.8H56c-0.9,3.1-1.8,6-2.8,8.8c-0.9,2.7-1.9,5.6-3,8.6l-3.5,10H65.5z"/>
	<path d="M87.7,77.7h12.1c5,0,9,1,11.8,3c2.9,2,4.3,5,4.3,9.1c0,2.7-0.7,5-2.2,6.9c-1.5,1.9-3.7,3.2-6.7,4v0.3
		c3.7,0.6,6.7,1.8,8.8,3.8c2.2,2,3.2,4.8,3.2,8.2c0,4.8-1.6,8.4-4.9,10.8c-3.3,2.4-7.8,3.7-13.5,3.7h-13V77.7z M98.3,99.8
		c5.4,0,9.3-0.9,11.7-2.6c2.4-1.7,3.5-4.3,3.5-7.8c0-3.4-1.2-5.9-3.7-7.4c-2.5-1.5-6.2-2.3-11.1-2.3h-8.6v20.1H98.3z M99.8,125.3
		c2.6,0,5-0.2,7.1-0.7s3.9-1.2,5.3-2.2c1.5-1,2.6-2.3,3.4-3.8c0.8-1.5,1.2-3.4,1.2-5.5c0-3.8-1.5-6.6-4.4-8.4
		c-2.9-1.8-7.1-2.8-12.5-2.8h-9.7v23.4H99.8z"/>
</g>
</svg>
