<?xml version="1.0" encoding="utf-8"?>
<!-- Generator: Adobe Illustrator 19.0.1, SVG Export Plug-In . SVG Version: 6.00 Build 0)  -->
<svg version="1.1" id="Calque_1" xmlns="http://www.w3.org/2000/svg" xmlns:xlink="http://www.w3.org/1999/xlink" x="0px" y="0px"
	 viewBox="-114 357.4 365.3 127.5" style="enable-background:new -114 357.4 365.3 127.5;" xml:space="preserve">
<style type="text/css">
	.st0{fill:#1D1D1B;}
</style>
<g>
	<path d="M-114,367.4h3.5l8.8,24l3.2,9.1h0.3l3-9.1l8.8-24h3.5v49.8h-2.4v-37.4c0-1.6,0-3.2,0.1-4.8c0-1.7,0.1-3.3,0.2-4.8h-0.2
		l-3,8.2l-9.3,25h-2l-9.4-25l-2.9-8.3h-0.2c0,1.6,0.1,3.2,0.2,4.8c0.1,1.7,0.1,3.3,0.1,4.8V417h-2.3V367.4z"/>
	<path d="M-46.6,385.2h-20.3l-6.3-17.8h-2.4l17.8,49.8h2.1l17.8-49.8h-2.6L-46.6,385.2z M-47.4,387.3l-3.5,10c-1.1,3-2,5.9-3,8.6
		c-0.9,2.7-1.8,5.6-2.8,8.8H-57c-0.9-3.1-1.8-6-2.8-8.8c-0.9-2.7-1.9-5.6-3-8.6l-3.5-10C-66.3,387.3-47.4,387.3-47.4,387.3z"/>
	<path d="M-27.6,367.4h29v2.1h-26.6v20.1h22.3v2.1h-22.3v23.4H2.1v2.1h-29.7V367.4z"/>
	<path d="M16,367.4h2.3v47.7h26.6v2.1H16V367.4z"/>
	<path d="M53.7,408.8c1.9,2.1,4.2,3.8,6.9,5.1c2.7,1.3,5.6,1.9,8.8,1.9c2.1,0,4-0.3,5.7-0.8s3.2-1.3,4.4-2.2s2.1-2,2.8-3.4
		c0.7-1.3,1-2.8,1-4.4c0-1.7-0.3-3.1-0.8-4.2s-1.2-2.1-2.1-2.9c-0.9-0.8-2-1.5-3.2-2.1c-1.2-0.6-2.5-1.2-3.8-1.7l-7.7-3.5
		c-1.2-0.5-2.4-1-3.6-1.7c-1.3-0.7-2.4-1.4-3.5-2.4c-1.1-0.9-2-2.1-2.7-3.4s-1.1-2.9-1.1-4.8c0-1.8,0.4-3.4,1.1-4.8
		c0.8-1.5,1.8-2.7,3.1-3.8s2.9-1.9,4.7-2.5s3.8-0.9,5.9-0.9c3.2,0,6,0.6,8.4,1.8s4.4,2.6,5.9,4.1l-1.5,1.7c-1.5-1.6-3.3-2.9-5.5-3.8
		c-2.2-1-4.6-1.4-7.3-1.4c-3.7,0-6.7,0.9-9,2.6c-2.3,1.7-3.4,4-3.4,6.9c0,1.6,0.3,2.9,0.9,4c0.6,1.1,1.4,2,2.4,2.8
		c1,0.8,2,1.4,3.1,2c1.1,0.5,2.1,1,3.1,1.4l7.7,3.5c1.5,0.6,2.9,1.3,4.2,2c1.4,0.7,2.6,1.6,3.6,2.6c1.1,1,1.9,2.2,2.5,3.6
		s0.9,3,0.9,4.9c0,1.9-0.4,3.7-1.2,5.2c-0.8,1.6-1.9,3-3.3,4.2c-1.4,1.2-3.1,2.1-5.1,2.8s-4.2,1-6.7,1c-3.9,0-7.2-0.7-10.1-2.1
		c-2.9-1.4-5.3-3.2-7.2-5.4L53.7,408.8z"/>
	<path d="M109.2,369.5H91.5v-2.1h37.7v2.1h-17.7v47.7h-2.4L109.2,369.5L109.2,369.5z"/>
	<path d="M166.6,417.1l-14-23.5h-11.2v23.5H139v-49.7h13.7c2.5,0,4.7,0.2,6.6,0.7c2,0.5,3.6,1.2,5,2.3c1.4,1,2.5,2.4,3.2,4
		c0.8,1.6,1.1,3.6,1.1,5.9c0,4-1.2,7.1-3.6,9.3c-2.4,2.2-5.7,3.6-9.8,4l14.2,23.7h-2.8V417.1z M151.8,391.5c4.6,0,8.2-0.9,10.6-2.8
		c2.5-1.8,3.7-4.7,3.7-8.6s-1.2-6.7-3.7-8.3c-2.5-1.6-6-2.4-10.6-2.4h-10.4v22L151.8,391.5L151.8,391.5z"/>
	<path d="M194,418.1c-2.7,0-5.1-0.6-7.4-1.8c-2.3-1.2-4.2-3-5.8-5.2c-1.6-2.3-2.9-5-3.8-8.2c-0.9-3.2-1.4-6.8-1.4-10.7
		s0.5-7.5,1.4-10.6c0.9-3.2,2.2-5.9,3.8-8.1c1.6-2.2,3.6-3.9,5.8-5.1c2.3-1.2,4.7-1.8,7.4-1.8c2.7,0,5.1,0.6,7.4,1.8
		c2.3,1.2,4.2,2.9,5.8,5.1c1.6,2.2,2.9,4.9,3.8,8.1s1.4,6.7,1.4,10.6s-0.5,7.5-1.4,10.7c-0.9,3.2-2.2,5.9-3.8,8.2
		c-1.6,2.3-3.6,4-5.8,5.2C199.1,417.4,196.7,418.1,194,418.1z M194,415.8c2.4,0,4.5-0.6,6.5-1.7c1.9-1.1,3.6-2.7,5-4.8
		s2.5-4.6,3.2-7.5c0.8-2.9,1.1-6.2,1.1-9.7c0-3.6-0.4-6.8-1.1-9.7c-0.8-2.9-1.8-5.4-3.2-7.4c-1.4-2-3.1-3.6-5-4.7s-4.1-1.6-6.5-1.6
		s-4.5,0.5-6.4,1.6s-3.6,2.6-5,4.7c-1.4,2-2.5,4.5-3.2,7.4c-0.8,2.9-1.1,6.1-1.1,9.7s0.4,6.8,1.1,9.7c0.8,2.9,1.8,5.4,3.2,7.5
		c1.4,2.1,3.1,3.7,5,4.8S191.6,415.8,194,415.8z M188.3,362.2c-0.7,0-1.3-0.2-1.7-0.6c-0.5-0.4-0.7-1-0.7-1.8c0-0.8,0.2-1.3,0.7-1.8
		c0.5-0.4,1-0.6,1.7-0.6s1.3,0.2,1.7,0.6c0.5,0.4,0.7,1,0.7,1.8c0,0.8-0.2,1.3-0.7,1.8C189.6,362,189,362.2,188.3,362.2z
		 M199.7,362.2c-0.7,0-1.3-0.2-1.7-0.6c-0.5-0.4-0.7-1-0.7-1.8c0-0.8,0.2-1.3,0.7-1.8c0.5-0.4,1-0.6,1.7-0.6s1.3,0.2,1.7,0.6
		c0.5,0.4,0.7,1,0.7,1.8c0,0.8-0.2,1.3-0.7,1.8C201,362,200.4,362.2,199.7,362.2z"/>
	<path d="M220.3,367.4h3.5l8.8,24l3.2,9.1h0.3l3-9.1l8.8-24h3.5v49.8H249v-37.4c0-1.6,0-3.2,0.1-4.8c0-1.7,0.1-3.3,0.2-4.8h-0.2
		l-2.7,8.3l-9.3,25h-2l-9.4-25l-2.9-8.3h-0.2c0,1.6,0.1,3.2,0.2,4.8c0.1,1.7,0.1,3.3,0.1,4.8v37.3h-2.3v-49.7H220.3z"/>
	<path d="M-114,435.1h2.3v47.7h26.6v2.1H-114V435.1z"/>
	<path d="M-47.8,467h-20.3l-6.3,17.8h-2.4L-59,435h2.1l17.9,49.9h-2.6L-47.8,467z M-48.5,464.9l-3.5-10c-1.1-3-2-5.9-3-8.6
		c-0.9-2.7-1.8-5.6-2.8-8.8H-58c-0.9,3.1-1.8,6-2.8,8.8c-0.9,2.7-1.9,5.6-3,8.6l-3.5,10H-48.5z"/>
	<path d="M-26.3,435.1h12.1c5,0,9,1,11.8,3c2.9,2,4.3,5,4.3,9.1c0,2.7-0.7,5-2.2,6.9s-3.7,3.2-6.7,4v0.3c3.7,0.6,6.7,1.8,8.8,3.8
		c2.2,2,3.2,4.8,3.2,8.2c0,4.8-1.6,8.4-4.9,10.8s-7.8,3.7-13.5,3.7h-13L-26.3,435.1L-26.3,435.1z M-15.7,457.2
		c5.4,0,9.3-0.9,11.7-2.6c2.4-1.7,3.5-4.3,3.5-7.8c0-3.4-1.2-5.9-3.7-7.4s-6.2-2.3-11.1-2.3h-8.6v20.1
		C-23.9,457.2-15.7,457.2-15.7,457.2z M-14.2,482.7c2.6,0,5-0.2,7.1-0.7s3.9-1.2,5.3-2.2c1.5-1,2.6-2.3,3.4-3.8s1.2-3.4,1.2-5.5
		c0-3.8-1.5-6.6-4.4-8.4c-2.9-1.8-7.1-2.8-12.5-2.8h-9.7v23.4H-14.2z"/>
</g>
<g>
	<g>
		<path class="st0" d="M10.2,483.6c0-0.4,0.1-0.7,0.4-1c0.2-0.2,0.5-0.3,0.8-0.3c0.3,0,0.6,0.1,0.8,0.3c0.2,0.2,0.4,0.5,0.4,1
			c0,0.4-0.1,0.7-0.4,1c-0.2,0.2-0.5,0.3-0.8,0.3c-0.3,0-0.6-0.1-0.8-0.3C10.3,484.4,10.2,484,10.2,483.6z"/>
		<path class="st0" d="M17.5,484.3c1.3-1.2,2.4-2.2,3.4-3.1c1-0.9,1.8-1.8,2.4-2.5c0.6-0.8,1.1-1.5,1.4-2.1c0.3-0.7,0.5-1.3,0.5-1.9
			c0-0.4-0.1-0.9-0.2-1.2c-0.1-0.4-0.3-0.7-0.6-1c-0.3-0.3-0.6-0.5-1.1-0.7c-0.4-0.2-1-0.2-1.6-0.2c-0.7,0-1.4,0.2-2,0.5
			c-0.6,0.4-1.2,0.8-1.7,1.3l-0.6-0.6c0.6-0.6,1.2-1.1,1.9-1.5c0.7-0.4,1.5-0.6,2.5-0.6c1.4,0,2.4,0.4,3.2,1.1
			c0.8,0.7,1.1,1.7,1.1,2.9c0,0.7-0.2,1.4-0.5,2.1s-0.8,1.4-1.4,2.2c-0.6,0.8-1.4,1.6-2.3,2.5c-0.9,0.9-1.9,1.8-3,2.8
			c0.4,0,0.9-0.1,1.3-0.1c0.4,0,0.9,0,1.3,0H27v0.9h-9.5V484.3z"/>
	</g>
</g>
</svg>
