<?xml version="1.0" encoding="utf-8"?>
<!-- Generator: Adobe Illustrator 18.1.1, SVG Export Plug-In . SVG Version: 6.00 Build 0)  -->
<svg version="1.1" id="Calque_1" xmlns="http://www.w3.org/2000/svg" xmlns:xlink="http://www.w3.org/1999/xlink" x="0px" y="0px"
	 viewBox="0 0 116.6 79.3" enable-background="new 0 0 116.6 79.3" xml:space="preserve">
<path d="M94.2,79.3H23.6c-5.2,0-9.4-4.2-9.4-9.4l5.1-42.7c0-5.2,4.2-9.4,9.4-9.4h60.5c5.2,0,9.4,4.2,9.4,9.4l5.1,42.7
	C103.6,75.1,99.4,79.3,94.2,79.3z"/>
<g>
	<g>
		<g>
			<path d="M106.7,49.4c-0.6,0-1.2-0.1-1.8-0.3c-5.5-1.6-11.1-3.2-16.5-4.7l-3.5-1c-3.2-0.9-5.2-3.3-5.2-6.5c0-1.8,0.1-3.6,0.2-5.5
				c0-0.8,0.1-1.6,0.1-2.4l0-0.4l0.4-1.3l0.2-2.7c0-0.6,0-0.6-0.4-0.9c-2.6-1.4-5.5-2.3-9.7-2.9c-2.7-0.4-5.5-0.5-8.7-0.5
				c-4.3,0-8.6,0.3-12.6,0.7c-3.6,0.3-7.2,0.9-10.8,1.6c0,0-0.1,0-0.1,0c0,0.1,0,0.2,0,0.3c-0.1,0.9,0,1.8,0,2.8c0,0.3,0,0.6,0,0.9
				l0.4,1.4l0,0.5c0,0.7,0,1.3,0,2c0,1.5,0,3.1-0.1,4.6c-0.2,3-2.2,5.2-5.3,5.9c-6.6,1.5-13.8,3-21,4.5c-0.3,0.1-0.6,0.1-0.9,0.1
				c-1.4,0-2.8-0.6-3.8-1.5c-2.2-2.2-3.2-5-3.8-7.4L3,35.2l0-0.6c0-0.5-0.1-1-0.1-1.5c-0.1-1.2-0.2-2.4-0.2-3.6
				c0.3-7.3,3-13.5,8.2-18.4c5.1-4.8,11.3-7.4,16.1-9c8.4-2.9,17.8-4.4,29.4-4.7c0.8,0,1.7,0,2.5,0c9.7,0,18.4,1.3,26.6,4
				c8.4,2.8,15.6,6.6,21.8,11.6c5.9,4.8,8.8,11.4,8.5,19.6c0,0.9-0.1,1.8-0.2,2.6l-0.1,0.7c0,0.3-0.1,0.7-0.2,1.1l-0.1,0.5l-0.4,1.4
				c-0.5,2.9-1.4,5.9-4,8.4C109.7,48.7,108.2,49.4,106.7,49.4z"/>
			<path fill="#FFFFFF" d="M58.9,0.8c8.7,0,17.3,1.1,25.6,3.9C92,7.1,99,10.7,105.3,15.7c5.4,4.4,7.5,10.2,7.3,17
				c0,1-0.2,2.1-0.3,3.1c0,0.4-0.1,0.8-0.2,1.3l-0.3,1.4c-0.5,2.5-1.2,4.9-3,6.7c-0.6,0.6-1.2,0.9-1.9,0.9c-0.3,0-0.6,0-0.9-0.1
				c-6.7-1.9-13.4-3.8-20.1-5.7C84.1,39.8,83,38.7,83,37c0-2.5,0.2-5,0.4-7.7l0.4-1.3c0.1-1,0.1-2.1,0.2-3.1c0.1-1.8-0.5-3-2.1-4
				c-3.4-1.9-7.1-2.8-10.9-3.3c-3-0.4-6.1-0.6-9.1-0.6c-4.3,0-8.6,0.3-12.9,0.7c-3.7,0.3-7.4,1-11.1,1.6c-2.1,0.4-2.8,1.2-2.9,3.4
				c-0.1,1.5,0,2.9,0,4.5l0.4,1.3c0,2.2,0,4.3-0.1,6.4c-0.1,1.6-1.1,2.6-2.7,2.9c-7,1.5-14,3.1-21,4.5c-0.1,0-0.2,0-0.3,0
				c-0.5,0-1.1-0.2-1.5-0.6c-1.7-1.7-2.4-3.8-3-6.1l-0.6-1.3c-0.1-1.6-0.3-3.2-0.3-4.7c0.3-6.3,2.5-11.7,7.1-16.1
				c4.3-4.1,9.5-6.4,14.9-8.3C37.2,2.1,46.8,1,56.4,0.8C57.2,0.8,58,0.8,58.9,0.8 M58.9-5.9L58.9-5.9c-0.9,0-1.7,0-2.6,0
				C44.3-5.6,34.6-4,25.9-1C20.7,0.8,14.1,3.5,8.6,8.8c-5.8,5.5-8.8,12.4-9.2,20.6c-0.1,1.5,0.1,2.9,0.2,4.1c0,0.5,0.1,0.9,0.1,1.4
				l0.1,1.2l0.5,1.1l0.3,0.8c0.7,2.7,1.9,6,4.6,8.7c1.6,1.6,3.9,2.5,6.1,2.5c0.5,0,1.1-0.1,1.6-0.2c7.2-1.5,14.3-3.1,21-4.6
				c4.5-1,7.5-4.5,7.8-8.9c0.1-1.6,0.1-3.2,0.1-4.8c0-0.6,0-1.3,0-1.9l0-1.1l-0.3-1l-0.1-0.4c0-0.1,0-0.3,0-0.4c0-0.1,0-0.2,0-0.3
				c2.7-0.5,5.3-0.9,8-1.1c3.9-0.3,8.1-0.7,12.3-0.7c3,0,5.7,0.2,8.3,0.5c3,0.4,5.2,1,7.1,1.8l0,0.4l0,0.2L77,27.3l-0.3,0.8l0,0.9
				c0,0.8-0.1,1.6-0.1,2.3c-0.1,1.8-0.2,3.7-0.2,5.7c0,4.6,2.9,8.3,7.6,9.7l3.4,1c5.5,1.5,11.1,3.1,16.6,4.7
				c0.9,0.3,1.8,0.4,2.7,0.4c1.7,0,4.2-0.5,6.6-2.8c3.2-3.1,4.3-6.8,4.9-10l0.3-1.1l0.1-0.2l0-0.2c0-0.1,0-0.3,0.1-0.4
				c0.1-0.4,0.2-0.8,0.2-1.4c0-0.2,0.1-0.5,0.1-0.7c0.1-0.9,0.2-1.9,0.3-2.9c0.3-9.4-3-16.9-9.7-22.3c-6.6-5.3-14.1-9.3-22.9-12.2
				C78-4.5,68.9-5.9,58.9-5.9L58.9-5.9z"/>
		</g>
	</g>
</g>
<circle fill="#FFFFFF" cx="58.9" cy="55.9" r="14"/>
</svg>
