<?xml version="1.0" encoding="utf-8"?>
<!-- Generator: Adobe Illustrator 19.0.1, SVG Export Plug-In . SVG Version: 6.00 Build 0)  -->
<svg version="1.1" id="Calque_1" xmlns="http://www.w3.org/2000/svg" xmlns:xlink="http://www.w3.org/1999/xlink" x="0px" y="0px"
	 viewBox="-1 192.4 593 457.5" style="enable-background:new -1 192.4 593 457.5;" xml:space="preserve">
<style type="text/css">
	.st0{clip-path:url(#SVGID_2_);}
	.st1{fill:#C6C6C6;}
	.st2{fill:none;stroke:#000000;stroke-width:3.927;stroke-linecap:round;stroke-miterlimit:10;}
	.st3{fill:none;stroke:#000000;stroke-width:1.9635;stroke-linecap:round;stroke-miterlimit:10;}
	.st4{fill:none;stroke:#000000;stroke-width:5.236;stroke-linecap:round;stroke-miterlimit:10;}
	.st5{fill:none;stroke:#000000;stroke-width:0.6545;stroke-linecap:round;stroke-miterlimit:10;}
	.st6{fill:none;stroke:#000000;stroke-width:7.4892;stroke-miterlimit:10;}
	.st7{fill:none;stroke:#FFFFFF;stroke-width:1.309;stroke-linecap:round;stroke-miterlimit:10;}
	.st8{font-family:'SourceCodePro-Regular';}
	.st9{font-size:13.1061px;}
	.st10{font-size:13.1068px;}
	.st11{font-size:13.1055px;}
	.st12{opacity:0.5;enable-background:new    ;}
	.st13{clip-path:url(#SVGID_4_);}
	.st14{fill:#B2B2B2;}
	.st15{clip-path:url(#SVGID_6_);}
	.st16{clip-path:url(#SVGID_8_);}
	.st17{clip-path:url(#SVGID_10_);}
	.st18{fill:#4999D8;}
</style>
<g>
	<g>
		<g>
			<defs>
				<rect id="SVGID_1_" x="-1" y="192.4" width="593" height="457.5"/>
			</defs>
			<clipPath id="SVGID_2_">
				<use xlink:href="#SVGID_1_"  style="overflow:visible;"/>
			</clipPath>
			<g class="st0">
				<path class="st1" d="M586.1,499c-1.7,1.5-12.2,3.7-12.9,4.1s-8.7,2.2-11.1,2.8s-10.5,2.2-10.5,2.2s-7.4,2-9.4,2.4
					s-7.2,1.3-9.2,1.7c-2,0.4-7.6,1.1-9.8,1.7c-2.2,0.7-6.5,2.4-7.2,2.8c-0.7,0.4-3.1,1.3-3.1,1.3s-5.2-1.1-8.3-0.2
					c-3.1,0.9-2.4,0.4-5.7,1.1c-3.3,0.7-5.7,1.5-7.6,2.4c-2,0.9-2.8,2.8-5,2c-2.2-0.9-9.4-2.2-9.4-2.2l-7-0.2c0,0-9.8,2.6-10.7,3.3
					c-0.9,0.7-16.6,7-18.5,7.4c-2,0.4-19.4,5.9-20.5,5.9s-4.8,0.4-4.8,0.4l-8.9-0.4l-8.7,0.7l-11.3,6.5l-8.7-0.4l-13.3-2.4
					c0,0-24-5.5-30.1-5.9c-6.1-0.4-13.4,0.5-15.8,0.8c-2.4,0.4-20.6,4.6-20.6,4.6s-3.3,0.7-4.4,1.3c-1.1,0.7-6.5,1.7-8.5,1.7
					s-10.8-0.8-10.8-0.8s-19.9,8.5-24.1,9.6c-4.1,1.1-21.4,8.3-21.4,8.3s-36,5.9-36.4,7.2c-0.4,1.3-15.5,6.8-18.3,7.8
					c-2.8,1.1-20.3,9.2-22,9.6c-1.7,0.4-21.2,7.9-23.1,8.7c-2,0.9-11.8,5.9-13.3,6.3c-1.5,0.4-9.6,2.4-10.9,2.6s-23.3,2.2-23.3,2.2
					l-30.3,5.7c0,0-37.3,9.4-38,9.8c-0.7,0.4-24.4,4.8-24.4,4.8l-7.9,4.4l2,18.5c0,0,0.7-0.4,3.5,0c2.8,0.4,5.9,1.1,10.7,0
					c4.8-1.1,14.2-9.4,17.7-11.1s14.6-5.7,18.1-6.8c3.5-1.1,13.1-2.2,14.4-2.6c1.3-0.4,7.2-3.5,7.2-3.5l9.4-3.7h2.6
					c0,0,7.4,3.7,8.3,4.6c0.9,0.9,7.4,1.1,7.4,1.1s7.2-1.5,8.3-1.5s15.1-5.5,15.9-5.9c0.9-0.4,4.1-3.5,4.1-3.5l7.6-4.4l14.2-7.4
					c0,0,5.2-0.7,5.9,0s4.1,1.3,4.1,1.3l24-7.6l8.7-3.9c0,0,4.4-1.1,6.3-1.7c1.9-0.6,8.3-2.8,8.3-2.8s4.8-3.5,7-4.4
					c2.2-0.9,5.7-2,7.4-2.4c1.7-0.4,13.3-4.1,14.6-4.4c1.3-0.2,8.9-1.1,12.4-2.4s11.1-3.1,13.5-3.9c2.4-0.9,12.4-3.1,13.7-3.5
					c1.3-0.4,9.6-3.1,10.9-3.5c1.3-0.4,8.5-1.7,9.2-2.6c0.7-0.9,10.3,0,10.3,0l5.2-0.4c0,0,10.7-2,11.8-2.9
					c1.1-0.9,6.5-1.3,10.5-1.5s20.9,0.4,25.5,0c4.6-0.4,29.5,0,29.5,0l3.3-0.2l4.4,1.7l5.9,2.2c0,0,33.8,1.3,36.7,1.1
					c2.8-0.2,9.4,1.3,12,0.9c2.6-0.4,11.8-5.9,11.8-5.9l15.9-6.1c0,0,10.7-5.7,11.3-5.9c0.7-0.2,5.2-1.5,5.2-1.5l1.3,1.3l2.8-0.2
					c0,0,3.9-0.7,4.6-1.1c0.7-0.4,12.7-1.7,12.7-1.7h6.3h5.2c0,0,17.9-5.5,18.5-5.7c0.7-0.2,14.6-3.7,14.6-3.7l8.1-7.2l11.1-8.9
					h12.4l10.3,3.1l6.3-8.9V498C592,497.9,587.8,497.5,586.1,499z M9,633c-1.7,0.9-6.5,3.9-9.2,5.2c-2.6,1.3-7.4,0.2-10.7,0
					s-6.5-1.3-6.5-1.3v-3.7l12-4.6l4.4-1.1h3.7h4.4l3.7,3.5C10.8,631,10.8,632.1,9,633z M46.6,619.7c-0.9,0.4-8.1,1.7-8.1,1.7H33
					c0,0,3.9-2.8,4.8-2.8s4.4,0.2,4.4,0.2l9.8-3.1l12-3.5l4.8,1.7C68.8,614,47.4,619.2,46.6,619.7z M99.1,619.7l-6.3,1.7l-13.5,2.4
					l-7.4-4.1l5.9-3.7l26.6-2L99.1,619.7z M247.7,566.2c0,0-2.4-1.3-3.3-1.5c-0.9-0.2-6.8-0.2-7.4,0c-0.7,0.2-3.1,2.6-3.1,2.6
					l-1.3,3.3h-16.8l7-2.6l6.3-2.2l5.7-1.1l8.7-2h1.7h1.3l2,1.8L247.7,566.2z M290.7,556l-8.1,1.1l-16.1,1.3l-8.1,4.4l-7.4-3.3
					c0,0,7.9-5.2,8.9-5.9c1.1-0.7,11.3-1.1,11.3-1.1l16.4,0.9l3.9,0.7L290.7,556z M343.3,543.8l-2.6,0.9l-3.9,0.4l-5.5,3.3h-3.1
					l-4.1-2.2c0,0-10.3-1.1-14.2-1.5c-3.9-0.4-7.9-0.9-7.9-0.9l8.5-2.2c0,0,9.2-1.5,10.3-1.7c1.1-0.2,5.9-1.1,7.2-1.3
					c1.3-0.2,3.5,0,3.5,0s5.5,1.5,6.8,1.7s5,2,5,2L343.3,543.8L343.3,543.8z M439.3,535.5h7.4h4.6l-1.5,4.1l-7.2,2.6
					c0,0-2.8,3.3-5.9,3.6c-3.1,0.3-9.4,1-9.4,1l-2.2-5.5L439.3,535.5z M420.9,543.4l1.7,2.6l-2.2,2.4h-5l-2.2-4.4L420.9,543.4z
					 M470.5,543.4c-0.7,0.7-13.3,2.8-14,2.8s-19,3.9-19.9,4.1s-7.9,4.4-7.9,4.4s-7.9,0.2-9.8,0c-2-0.2-8.3-0.7-12.4-2.2
					s-5.7,0-5.7,0l-3.5-4.1l11.8-4.4l6.3,6l3.5-0.4l6.8-0.2l5.7,0.9l17-4.6c0,0,2.8-3.9,3.3-4.6c0.4-0.7,6.5-3.9,6.5-3.9
					s12-2,12.7-2.4c0.7-0.4,8.5-1.5,8.5-1.5l3.7,5.4C483.1,538.4,471.1,542.7,470.5,543.4z M526.5,529.8l-1.7,3.3c0,0-3.3-0.2-3.9,0
					c-0.7,0.2-6.3,1.5-6.3,1.5l-26.6,0.9l-9.8-4.8h-8.3l6.3-3.1l16.8,3.1l4.1,1.3l13.5-2.2l17.7-5l3.1-1.3l7.2,0.9L526.5,529.8z"/>
				<path class="st2" d="M301.8,565l-19.2-70.7l78.5-99.9c0,0,12.7-13.5,12.2-17.9c-0.4-4.4-5.7-17.5,19.6-40.6
					c25.3-23.1,13.1-4.8,31.4-21.4c18.3-16.6,41.5-54.5,41.5-54.5l80.5-109.1"/>
				<path class="st2" d="M446.7,523.5c-12.7-7-14.4-41-14.8-47.6c-0.4-6.5-14.8-47.1-16.1-49.3c-1.3-2.2-19.2-33.6-34-45.4
					s-33.2-15.7-48.9-18.3c-15.7-2.6-14.8,7.9-31,11.8c-16.1,3.9-44.9,0.9-53.7-2.2c-8.8-3.1-17.9-0.4-24,3.5s-30.5,14.8-30.5,14.8
					l-10,6.5l-3.5-2.2l-12.7-14.8h-27.9c0,0-10.9-16.1-8.7-28.8c2.2-12.7-0.9-24.9-3.9-27.5c-3.1-2.6-10.5-11.8-10.5-11.8
					L42.2,156.5"/>
				<path class="st3" d="M601.5,491c0,0-76.3,15.9-87.6,17.7c-11.3,1.7-75,17-75,17s-9.6,8.7-16.1,9.6c-6.5,0.9-12.2,2.2-17.5,0
					c-5.2-2.2-23.1-6.1-28.4-6.5c-5.2-0.4-31,0-34.5,1.3s-20.5,6.4-20.5,6.4s-52.4,7.5-59.8,9.7S229.4,561,198,567.6
					c-31.4,6.6-70.7,27.9-75.9,28.4c-5.3,0.3-73.8,13.4-85.1,17.4s-43.6,10.5-43.6,10.5"/>
				<path class="st2" d="M282.6,494.2c0,0-31-19.6-42.8-31C228,451.9,201,421.7,201,421.7l-18.3-20.9l0.9-3.5"/>
				<path class="st4" d="M160.9,663.1c0,0,5.2-18.3,6.1-21.8c0.9-3.5-0.4-10,0-11.3s-8.7-18.3-8.7-18.3s-7.4-34.4-7-37.7
					s4.8-12.5,5.2-16.4c0.4-3.9-19.6-44.1-24-45.4s-21.8-12.2-23.1-21.8c-1.3-9.6-1.7-17.9,0-21.4s-0.6-12.7-1.2-26.2
					c-0.6-13.5-4.2-37.1,0-41c4.2-3.9,14.2-14,17.3-16.6c3.1-2.6,17.5-10,19.2-10s26.2-6.5,28.4-6.5s7,3.1,4.4,5.7
					s-12.2,6.1-12.2,6.1"/>
				<path class="st4" d="M402.2,668.3c0,0-21.8-68.1-22.3-70.3c-0.4-2.2-7-10.9-3.5-17.9s22.9-38,24.1-42.1
					c1.2-4.1,8.2-18.1,11.7-22.3c3.5-4.2,7.4-9.4,22.7-15.3s27.1-20.3,31-29.9s11.8-46.3,11.8-46.3l21.8-120.4
					c0,0,1.7-20.9,47.1-57.2c45.4-36.2,48-70.3,48-70.3"/>
				<path class="st3" d="M261.7,480.2c0,0-3.5-30.1-6.1-41s-9.6-49.3,3.1-89.9c12.6-40.6-2.1-99.5-2.1-99.5l-5.2-45.8l-22.8-53.5"/>
				<line class="st5" x1="336.3" y1="146.5" x2="251.3" y2="204.1"/>
				<path class="st3" d="M-1,455.8c0,0,23.6-15.3,27.1-17c3.5-1.7,17-23.1,16.1-27.5c-0.9-4.4,8.3-17.5,14.4-25.3
					c6.1-7.9,7-17.5,14.4-17.5s14.8-1.3,20.1,0c5.3,1.3,11.1,0.9,15.2,2.2c4,1.3,14.9,4.4,12.8-6.5c-2.2-10.9-1.7-24.9,2.2-24.2
					c3.9,0.7,0-18.5,0-18.5s3.5-2.9,6.5-6c3.1-3.2,11.1-8.8,14.5-19.3s-5.1-22.7,0-24c5.1-1.3,46.6,4.8,48.8,4.4s0.4-19.2,23.1-31
					c22.7-11.8,38.6-28.9,38.6-28.9"/>
				<path class="st2" d="M-6.7,259.9c0,0,21.8,7.4,41.5,22.3s21.4,22.3,30.5,27.1c9.2,4.8,18.8,5.4,28.8,6.2c10,0.8,27.1,6,27.1,6
					l5.7,2.6"/>
				<path class="st3" d="M332.1,149.3c0,0-7.1,49.5-6.3,54.7s7.4,25.3,13.5,41.5s13.5,27.5,15.7,41s-4.4,34.4-9.6,49.7
					c-5.2,15.3-7.9,56.8-4.8,65.5c3.1,8.7,25.8,23.1,28.4,25.3c2.6,2.2-0.9,18.8,0,24s-3.9,50.6-3.5,56.7s-7.9,38-7.9,38l-6.1,13.7
					l3.1,28.1l-90.9,22.3l-19.3-34.4l-55,14.4L153,605.1v10.5l11.5,8.3"/>
				<line class="st3" x1="310.9" y1="598.3" x2="330.2" y2="668.3"/>
				<path class="st3" d="M244.4,575.4c0,0,29-6.1,31.6-6.1s48.4-6.5,48.4-6.5s35.3-6.1,38.8-3.3s30.1,3.3,30.1,3.3s59.8,1.3,62,1.7
					s21.4-5.8,21.4-5.8l25.3-13.9c0,0,28-8.3,29.8-8.8c1.7-0.4,34.4-9.1,34.4-9.1l49.4,0.1"/>
				<path class="st3" d="M474.6,649.9c0,0-20.1-38.3-20.9-43.1c-0.9-4.8-3.5-21.4-1.7-26.6c1.7-5.2,9-16.7,9-16.7"/>
				<path class="st3" d="M354.6,587.6l15.4-12.2c0,0,8.2-8.7,19.5-6.1c11.3,2.6,25.7,4.8,27.1,6.1c1.4,1.3,30.1-1.5,30.1-1.5h8.1"/>
				<circle class="st6" cx="200.5" cy="241.6" r="12.8"/>
				<path class="st7" d="M160.9,663.1c0,0,5.2-18.3,6.1-21.8c0.9-3.5-0.4-10,0-11.3s-8.7-18.3-8.7-18.3s-7.4-34.4-7-37.7
					s4.8-12.5,5.2-16.4c0.4-3.9-19.6-44.1-24-45.4s-21.8-12.2-23.1-21.8c-1.3-9.6-1.7-17.9,0-21.4s-0.6-12.7-1.2-26.2
					c-0.6-13.5-4.2-37.1,0-41c4.2-3.9,14.2-14,17.3-16.6c3.1-2.6,17.5-10,19.2-10s26.2-6.5,28.4-6.5s7,3.1,4.4,5.7
					s-12.2,6.1-12.2,6.1"/>
				<path class="st7" d="M402.2,668.3c0,0-21.8-68.1-22.3-70.3c-0.4-2.2-7-10.9-3.5-17.9s22.9-38,24.1-42.1
					c1.2-4.1,8.2-18.1,11.7-22.3c3.5-4.2,7.4-9.4,22.7-15.3s27.1-20.3,31-29.9s11.8-46.3,11.8-46.3l21.8-120.4
					c0,0,1.7-20.9,47.1-57.2c45.4-36.2,48-70.3,48-70.3"/>
			</g>
		</g>
	</g>
	<text transform="matrix(0.9777 -0.2101 0.2101 0.9777 279.9085 592.3429)" class="st8 st9">TOURS</text>
	<text transform="matrix(0.9708 -0.2401 0.2401 0.9708 232.587 524.399)" class="st8 st10">ST CYR</text>
	<text transform="matrix(0.9708 -0.2401 0.2401 0.9708 213.4451 545.3065)" class="st8 st10">SUR LOIRE</text>
	<g>
		<text transform="matrix(0.9706 -0.2406 0.2406 0.9706 139.633 330.8108)" class="st8 st9">LA</text>
		<text transform="matrix(0.9706 -0.2406 0.2406 0.9706 143.4104 346.0493)" class="st8 st9">MEMBROLLE</text>
	</g>
	<g>
		<text transform="matrix(0.9695 -0.2449 0.2449 0.9695 122.6891 269.8229)" class="st8 st11">METTRAY</text>
	</g>
	<g class="st12">
		<g>
			<defs>
				<path id="SVGID_3_" d="M592,223.5c0,0-22.7,36.6-37.2,45.5c-14.5,8.9-28.1,22.9-30,28.5c-1.9,5.6-7,22.6-3.3,35.4
					c3.7,12.8,18.3,21.4,8.9,40.5s-17.3,27-25.3,44.1s-8.4,29.2-13.6,40.5c-5.1,11.3-11.7,20.2-11.7,20.2l7,10.1l105.1-7.4
					L592,223.5L592,223.5z"/>
			</defs>
			<clipPath id="SVGID_4_">
				<use xlink:href="#SVGID_3_"  style="overflow:visible;"/>
			</clipPath>
			<g class="st13">
				
					<rect x="432.1" y="135.8" transform="matrix(-0.8079 -0.5893 0.5893 -0.8079 618.5288 764.936)" class="st14" width="3.7" height="291.8"/>
				
					<rect x="439.1" y="140.8" transform="matrix(-0.8079 -0.5893 0.5893 -0.8079 628.2497 778.2031)" class="st14" width="3.7" height="291.8"/>
				
					<rect x="446" y="145.9" transform="matrix(-0.8079 -0.5893 0.5893 -0.8079 637.7048 791.4274)" class="st14" width="3.7" height="291.8"/>
				
					<rect x="452.9" y="150.9" transform="matrix(-0.8079 -0.5893 0.5893 -0.8079 647.3143 804.5405)" class="st14" width="3.7" height="291.8"/>
				
					<rect x="459.9" y="156" transform="matrix(-0.8079 -0.5893 0.5893 -0.8079 656.881 817.9188)" class="st14" width="3.7" height="291.8"/>
				
					<rect x="466.8" y="161.1" transform="matrix(-0.8079 -0.5893 0.5893 -0.8079 666.3362 831.1431)" class="st14" width="3.7" height="291.8"/>
				
					<rect x="473.7" y="166.1" transform="matrix(-0.8079 -0.5893 0.5893 -0.8079 675.9457 844.2562)" class="st14" width="3.7" height="291.8"/>
				
					<rect x="480.7" y="171.2" transform="matrix(-0.8079 -0.5893 0.5893 -0.8079 685.5124 857.6348)" class="st14" width="3.7" height="291.8"/>
				
					<rect x="487.6" y="176.2" transform="matrix(-0.8079 -0.5893 0.5893 -0.8079 695.1218 870.7476)" class="st14" width="3.7" height="291.8"/>
				
					<rect x="494.5" y="181.3" transform="matrix(-0.8079 -0.5893 0.5893 -0.8079 704.5771 883.9719)" class="st14" width="3.7" height="291.8"/>
				
					<rect x="501.5" y="186.4" transform="matrix(-0.8079 -0.5893 0.5893 -0.8079 714.1437 897.3505)" class="st14" width="3.7" height="291.8"/>
				
					<rect x="508.4" y="191.4" transform="matrix(-0.8079 -0.5893 0.5893 -0.8079 723.7533 910.4633)" class="st14" width="3.7" height="291.8"/>
				
					<rect x="515.3" y="196.4" transform="matrix(-0.8079 -0.5893 0.5893 -0.8079 733.2084 923.6876)" class="st14" width="3.7" height="291.8"/>
				
					<rect x="522.3" y="201.5" transform="matrix(-0.8079 -0.5893 0.5893 -0.8079 742.9293 936.9548)" class="st14" width="3.7" height="291.8"/>
				
					<rect x="529.2" y="206.6" transform="matrix(-0.8079 -0.5893 0.5893 -0.8079 752.3846 950.1791)" class="st14" width="3.7" height="291.8"/>
				
					<rect x="536.2" y="211.7" transform="matrix(-0.8079 -0.5893 0.5893 -0.8079 761.9512 963.5576)" class="st14" width="3.7" height="291.8"/>
				
					<rect x="543.1" y="216.7" transform="matrix(-0.8079 -0.5893 0.5893 -0.8079 771.5606 976.6705)" class="st14" width="3.7" height="291.8"/>
				
					<rect x="550" y="221.8" transform="matrix(-0.8079 -0.5893 0.5893 -0.8079 781.016 989.895)" class="st14" width="3.7" height="291.8"/>
				
					<rect x="557" y="226.8" transform="matrix(-0.8079 -0.5893 0.5893 -0.8079 790.7366 1003.1619)" class="st14" width="3.7" height="291.8"/>
				
					<rect x="563.9" y="231.9" transform="matrix(-0.8079 -0.5893 0.5893 -0.8079 800.192 1016.3864)" class="st14" width="3.7" height="291.8"/>
				
					<rect x="570.8" y="237" transform="matrix(-0.8079 -0.5893 0.5893 -0.8079 809.6473 1029.6107)" class="st14" width="3.7" height="291.8"/>
				
					<rect x="577.8" y="242" transform="matrix(-0.8079 -0.5893 0.5893 -0.8079 819.3682 1042.8777)" class="st14" width="3.7" height="291.8"/>
				
					<rect x="584.7" y="247.1" transform="matrix(-0.8079 -0.5893 0.5893 -0.8079 828.8234 1056.1021)" class="st14" width="3.7" height="291.8"/>
				
					<rect x="591.6" y="252.1" transform="matrix(-0.8079 -0.5893 0.5893 -0.8079 838.4329 1069.215)" class="st14" width="3.7" height="291.8"/>
				
					<rect x="598.6" y="257.2" transform="matrix(-0.8079 -0.5893 0.5893 -0.8079 847.9995 1082.5936)" class="st14" width="3.7" height="291.8"/>
				
					<rect x="605.5" y="262.3" transform="matrix(-0.8079 -0.5893 0.5893 -0.8079 857.4547 1095.8177)" class="st14" width="3.7" height="291.8"/>
				
					<rect x="612.4" y="267.3" transform="matrix(-0.8079 -0.5893 0.5893 -0.8079 867.0643 1108.9309)" class="st14" width="3.7" height="291.8"/>
				
					<rect x="619.4" y="272.4" transform="matrix(-0.8079 -0.5893 0.5893 -0.8079 876.6308 1122.3092)" class="st14" width="3.7" height="291.8"/>
				
					<rect x="626.3" y="277.4" transform="matrix(-0.8079 -0.5893 0.5893 -0.8079 886.2402 1135.4222)" class="st14" width="3.7" height="291.8"/>
				
					<rect x="633.3" y="282.5" transform="matrix(-0.8079 -0.5893 0.5893 -0.8079 895.8069 1148.8007)" class="st14" width="3.7" height="291.8"/>
				
					<rect x="640.2" y="287.5" transform="matrix(-0.8079 -0.5893 0.5893 -0.8079 905.4164 1161.9138)" class="st14" width="3.7" height="291.8"/>
				
					<rect x="647.1" y="292.6" transform="matrix(-0.8079 -0.5893 0.5893 -0.8079 914.8717 1175.1381)" class="st14" width="3.7" height="291.8"/>
				
					<rect x="654.1" y="297.7" transform="matrix(-0.8079 -0.5893 0.5893 -0.8079 924.4382 1188.5164)" class="st14" width="3.7" height="291.8"/>
				
					<rect x="661" y="302.7" transform="matrix(-0.8079 -0.5893 0.5893 -0.8079 934.0478 1201.6295)" class="st14" width="3.7" height="291.8"/>
				
					<rect x="667.9" y="307.8" transform="matrix(-0.8079 -0.5893 0.5893 -0.8079 943.503 1214.8539)" class="st14" width="3.7" height="291.8"/>
				
					<rect x="674.9" y="312.8" transform="matrix(-0.8079 -0.5893 0.5893 -0.8079 953.2239 1228.1208)" class="st14" width="3.7" height="291.8"/>
				
					<rect x="681.8" y="317.9" transform="matrix(-0.8079 -0.5893 0.5893 -0.8079 962.6791 1241.3452)" class="st14" width="3.7" height="291.8"/>
				
					<rect x="688.7" y="322.9" transform="matrix(-0.8079 -0.5893 0.5893 -0.8079 972.1345 1254.5697)" class="st14" width="3.7" height="291.8"/>
				
					<rect x="695.7" y="328" transform="matrix(-0.8079 -0.5893 0.5893 -0.8079 981.8551 1267.8368)" class="st14" width="3.7" height="291.8"/>
				
					<rect x="702.6" y="333.1" transform="matrix(-0.8079 -0.5893 0.5893 -0.8079 991.3105 1281.0609)" class="st14" width="3.7" height="291.8"/>
				
					<rect x="709.5" y="338.1" transform="matrix(-0.8079 -0.5893 0.5893 -0.8079 1000.92 1294.1738)" class="st14" width="3.7" height="291.8"/>
				
					<rect x="716.5" y="343.2" transform="matrix(-0.8079 -0.5893 0.5893 -0.8079 1010.4868 1307.5524)" class="st14" width="3.7" height="291.8"/>
			</g>
		</g>
	</g>
	<g class="st12">
		<g>
			<defs>
				<path id="SVGID_5_" d="M-1,355.9c0,0,0-102.1,10.3-71.7c5.5,16.1,100.4,37.2,99.5,62.5c-0.2,5.9-25.3,27.7-21.5,40.5
					c3.7,12.8,2,47,2.1,68.3c0.1,15.9,11.3,15.7,3.4,32.8s24.5,32.9,34.1,40.6c12.9,10.3,9.1,34.7,9.1,34.7l-12.2,24.6L-1,613.3
					V355.9z"/>
			</defs>
			<clipPath id="SVGID_6_">
				<use xlink:href="#SVGID_5_"  style="overflow:visible;"/>
			</clipPath>
			<g class="st15">
				
					<rect x="-113.9" y="124.2" transform="matrix(-0.8079 -0.5893 0.5893 -0.8079 -408.7278 566.2626)" class="st14" width="3.7" height="451.1"/>
				
					<rect x="-107" y="129.2" transform="matrix(-0.8079 -0.5893 0.5893 -0.8079 -399.1183 579.3755)" class="st14" width="3.7" height="451.1"/>
				
					<rect x="-100" y="134.3" transform="matrix(-0.8079 -0.5893 0.5893 -0.8079 -389.5518 592.7541)" class="st14" width="3.7" height="451.1"/>
				
					<rect x="-93.1" y="139.3" transform="matrix(-0.8079 -0.5893 0.5893 -0.8079 -379.9423 605.8669)" class="st14" width="3.7" height="451.1"/>
				
					<rect x="-86.2" y="144.4" transform="matrix(-0.8079 -0.5893 0.5893 -0.8079 -370.487 619.0913)" class="st14" width="3.7" height="451.1"/>
				
					<rect x="-79.2" y="149.4" transform="matrix(-0.8079 -0.5893 0.5893 -0.8079 -360.7664 632.3585)" class="st14" width="3.7" height="451.1"/>
				
					<rect x="-72.3" y="154.5" transform="matrix(-0.8079 -0.5893 0.5893 -0.8079 -351.311 645.5826)" class="st14" width="3.7" height="451.1"/>
				
					<rect x="-65.4" y="159.6" transform="matrix(-0.8079 -0.5893 0.5893 -0.8079 -341.8556 658.8071)" class="st14" width="3.7" height="451.1"/>
				
					<rect x="-58.4" y="164.6" transform="matrix(-0.8079 -0.5893 0.5893 -0.8079 -332.135 672.0742)" class="st14" width="3.7" height="451.1"/>
				
					<rect x="-51.5" y="169.7" transform="matrix(-0.8079 -0.5893 0.5893 -0.8079 -322.6796 685.2984)" class="st14" width="3.7" height="451.1"/>
				
					<rect x="-44.6" y="174.7" transform="matrix(-0.8079 -0.5893 0.5893 -0.8079 -313.0701 698.4114)" class="st14" width="3.7" height="451.1"/>
				
					<rect x="-37.6" y="179.8" transform="matrix(-0.8079 -0.5893 0.5893 -0.8079 -303.5034 711.79)" class="st14" width="3.7" height="451.1"/>
				
					<rect x="-30.7" y="184.9" transform="matrix(-0.8079 -0.5893 0.5893 -0.8079 -294.0483 725.0143)" class="st14" width="3.7" height="451.1"/>
				
					<rect x="-23.7" y="189.9" transform="matrix(-0.8079 -0.5893 0.5893 -0.8079 -284.3274 738.2813)" class="st14" width="3.7" height="451.1"/>
				
					<rect x="-16.8" y="195" transform="matrix(-0.8079 -0.5893 0.5893 -0.8079 -274.8721 751.5057)" class="st14" width="3.7" height="451.1"/>
				
					<rect x="-9.9" y="200" transform="matrix(-0.8079 -0.5893 0.5893 -0.8079 -265.2627 764.6185)" class="st14" width="3.7" height="451.1"/>
				
					<rect x="-2.9" y="205.1" transform="matrix(-0.8079 -0.5893 0.5893 -0.8079 -255.696 777.9971)" class="st14" width="3.7" height="451.1"/>
				
					<rect x="4" y="210.2" transform="matrix(-0.8079 -0.5893 0.5893 -0.8079 -246.2407 791.2214)" class="st14" width="3.7" height="451.1"/>
				
					<rect x="10.9" y="215.2" transform="matrix(-0.8079 -0.5893 0.5893 -0.8079 -236.6314 804.3344)" class="st14" width="3.7" height="451.1"/>
				
					<rect x="17.9" y="220.3" transform="matrix(-0.8079 -0.5893 0.5893 -0.8079 -227.0647 817.7128)" class="st14" width="3.7" height="451.1"/>
				
					<rect x="24.8" y="225.3" transform="matrix(-0.8079 -0.5893 0.5893 -0.8079 -217.4552 830.8259)" class="st14" width="3.7" height="451.1"/>
				
					<rect x="31.7" y="230.4" transform="matrix(-0.8079 -0.5893 0.5893 -0.8079 -207.9998 844.0502)" class="st14" width="3.7" height="451.1"/>
				
					<rect x="38.7" y="235.5" transform="matrix(-0.8079 -0.5893 0.5893 -0.8079 -198.4333 857.4285)" class="st14" width="3.7" height="451.1"/>
				
					<rect x="45.6" y="240.5" transform="matrix(-0.8079 -0.5893 0.5893 -0.8079 -188.8238 870.5416)" class="st14" width="3.7" height="451.1"/>
				
					<rect x="52.5" y="245.6" transform="matrix(-0.8079 -0.5893 0.5893 -0.8079 -179.3685 883.766)" class="st14" width="3.7" height="451.1"/>
				
					<rect x="59.5" y="250.6" transform="matrix(-0.8079 -0.5893 0.5893 -0.8079 -169.6478 897.0331)" class="st14" width="3.7" height="451.1"/>
				
					<rect x="66.4" y="255.7" transform="matrix(-0.8079 -0.5893 0.5893 -0.8079 -160.1924 910.2573)" class="st14" width="3.7" height="451.1"/>
				
					<rect x="73.4" y="260.8" transform="matrix(-0.8079 -0.5893 0.5893 -0.8079 -150.6258 923.6358)" class="st14" width="3.7" height="451.1"/>
				
					<rect x="80.3" y="265.8" transform="matrix(-0.8079 -0.5893 0.5893 -0.8079 -141.0164 936.7487)" class="st14" width="3.7" height="451.1"/>
				
					<rect x="87.2" y="270.9" transform="matrix(-0.8079 -0.5893 0.5893 -0.8079 -131.5611 949.973)" class="st14" width="3.7" height="451.1"/>
				
					<rect x="94.2" y="275.9" transform="matrix(-0.8079 -0.5893 0.5893 -0.8079 -121.8402 963.2402)" class="st14" width="3.7" height="451.1"/>
				
					<rect x="101.1" y="281" transform="matrix(-0.8079 -0.5893 0.5893 -0.8079 -112.3849 976.4646)" class="st14" width="3.7" height="451.1"/>
				
					<rect x="108" y="286" transform="matrix(-0.8079 -0.5893 0.5893 -0.8079 -102.7756 989.5776)" class="st14" width="3.7" height="451.1"/>
				
					<rect x="115" y="291.1" transform="matrix(-0.8079 -0.5893 0.5893 -0.8079 -93.2089 1002.9559)" class="st14" width="3.7" height="451.1"/>
				
					<rect x="121.9" y="296.2" transform="matrix(-0.8079 -0.5893 0.5893 -0.8079 -83.7536 1016.1804)" class="st14" width="3.7" height="451.1"/>
				
					<rect x="128.8" y="301.2" transform="matrix(-0.8079 -0.5893 0.5893 -0.8079 -74.1442 1029.2932)" class="st14" width="3.7" height="451.1"/>
				
					<rect x="135.8" y="306.3" transform="matrix(-0.8079 -0.5893 0.5893 -0.8079 -64.5775 1042.6716)" class="st14" width="3.7" height="451.1"/>
				
					<rect x="142.7" y="311.3" transform="matrix(-0.8079 -0.5893 0.5893 -0.8079 -54.968 1055.7848)" class="st14" width="3.7" height="451.1"/>
				
					<rect x="149.6" y="316.4" transform="matrix(-0.8079 -0.5893 0.5893 -0.8079 -45.5129 1069.009)" class="st14" width="3.7" height="451.1"/>
				
					<rect x="156.6" y="321.5" transform="matrix(-0.8079 -0.5893 0.5893 -0.8079 -35.9462 1082.3875)" class="st14" width="3.7" height="451.1"/>
				
					<rect x="163.5" y="326.5" transform="matrix(-0.8079 -0.5893 0.5893 -0.8079 -26.3367 1095.5005)" class="st14" width="3.7" height="451.1"/>
				
					<rect x="170.4" y="331.6" transform="matrix(-0.8079 -0.5893 0.5893 -0.8079 -16.8813 1108.7249)" class="st14" width="3.7" height="451.1"/>
			</g>
		</g>
	</g>
	<g class="st12">
		<g>
			<defs>
				<path id="SVGID_7_" d="M352.8,192.4c0,0,15.2,1.4,31.9,0c0,0-23.2,0.5,21.3,0c5.9-0.1,27.7,1.9,31.4,12
					c3.7,10.1,75.8-10.5,75.8-10.5c0.1,12.5-5.1,6.5-13.1,20s-72.1,65.4-99.5,87.9c-11.4,9.4-30.7,21.4-30.7,21.4l-14-75.9
					l-21.6-54.4L352.8,192.4z"/>
			</defs>
			<clipPath id="SVGID_8_">
				<use xlink:href="#SVGID_7_"  style="overflow:visible;"/>
			</clipPath>
			<g class="st16">
				<polygon class="st14" points="84,189.2 81,187.5 346.9,-100.4 349.8,-98.6 				"/>
				<polygon class="st14" points="90.9,193.2 87.9,191.5 353.8,-96.4 356.8,-94.6 				"/>
				<polygon class="st14" points="97.8,197.2 94.9,195.5 360.7,-92.4 363.7,-90.6 				"/>
				<polygon class="st14" points="104.8,201.2 101.8,199.5 367.7,-88.4 370.6,-86.7 				"/>
				<polygon class="st14" points="111.7,205.2 108.7,203.5 374.6,-84.4 377.6,-82.7 				"/>
				<polygon class="st14" points="118.7,209.2 115.7,207.5 381.5,-80.4 384.5,-78.7 				"/>
				<polygon class="st14" points="125.6,213.2 122.6,211.5 388.5,-76.4 391.4,-74.7 				"/>
				<polygon class="st14" points="132.5,217.2 129.6,215.5 395.4,-72.4 398.4,-70.7 				"/>
				<polygon class="st14" points="139.5,221.2 136.5,219.5 402.3,-68.4 405.3,-66.7 				"/>
				<polygon class="st14" points="146.4,225.2 143.4,223.5 409.3,-64.4 412.2,-62.7 				"/>
				<polygon class="st14" points="153.3,229.2 150.4,227.5 416.2,-60.4 419.2,-58.7 				"/>
				<polygon class="st14" points="160.3,233.2 157.3,231.5 423.1,-56.4 426.1,-54.7 				"/>
				<polygon class="st14" points="167.2,237.2 164.2,235.5 430.1,-52.4 433.1,-50.7 				"/>
				<polygon class="st14" points="174.1,241.2 171.2,239.5 437,-48.4 440,-46.7 				"/>
				<polygon class="st14" points="181.1,245.2 178.1,243.5 444,-44.4 446.9,-42.7 				"/>
				<polygon class="st14" points="188,249.2 185,247.5 450.9,-40.4 453.9,-38.7 				"/>
				<polygon class="st14" points="194.9,253.2 192,251.5 457.8,-36.4 460.8,-34.7 				"/>
				<polygon class="st14" points="201.9,257.2 198.9,255.5 464.8,-32.4 467.7,-30.7 				"/>
				<polygon class="st14" points="208.8,261.2 205.8,259.5 471.7,-28.4 474.7,-26.7 				"/>
				<polygon class="st14" points="215.7,265.2 212.8,263.5 478.6,-24.4 481.6,-22.7 				"/>
				<polygon class="st14" points="222.7,269.2 219.7,267.5 485.6,-20.4 488.5,-18.7 				"/>
				<polygon class="st14" points="229.6,273.2 226.6,271.4 492.5,-16.4 495.5,-14.7 				"/>
				<polygon class="st14" points="236.6,277.2 233.6,275.4 499.4,-12.4 502.4,-10.7 				"/>
				<polygon class="st14" points="243.5,281.2 240.5,279.4 506.4,-8.4 509.3,-6.7 				"/>
				<polygon class="st14" points="250.4,285.2 247.5,283.4 513.3,-4.4 516.3,-2.7 				"/>
				<polygon class="st14" points="257.4,289.1 254.4,287.4 520.2,-0.4 523.2,1.3 				"/>
				<polygon class="st14" points="264.3,293.1 261.3,291.4 527.2,3.5 530.1,5.3 				"/>
				<polygon class="st14" points="271.2,297.1 268.3,295.4 534.1,7.5 537.1,9.3 				"/>
				<polygon class="st14" points="278.2,301.1 275.2,299.4 541,11.5 544,13.3 				"/>
				<polygon class="st14" points="285.1,305.1 282.1,303.4 548,15.5 551,17.3 				"/>
				<polygon class="st14" points="292,309.1 289.1,307.4 554.9,19.5 557.9,21.2 				"/>
				<polygon class="st14" points="299,313.1 296,311.4 561.9,23.5 564.8,25.2 				"/>
				<polygon class="st14" points="305.9,317.1 302.9,315.4 568.8,27.5 571.8,29.2 				"/>
				<polygon class="st14" points="312.8,321.1 309.9,319.4 575.7,31.5 578.7,33.2 				"/>
				<polygon class="st14" points="319.8,325.1 316.8,323.4 582.7,35.5 585.6,37.2 				"/>
				<polygon class="st14" points="326.7,329.1 323.7,327.4 589.6,39.5 592.6,41.2 				"/>
				<polygon class="st14" points="333.6,333.1 330.7,331.4 596.5,43.5 599.5,45.2 				"/>
				<polygon class="st14" points="340.6,337.1 337.6,335.4 603.5,47.5 606.4,49.2 				"/>
				<polygon class="st14" points="347.5,341.1 344.5,339.4 610.4,51.5 613.4,53.2 				"/>
				<polygon class="st14" points="354.5,345.1 351.5,343.4 617.3,55.5 620.3,57.2 				"/>
				<polygon class="st14" points="361.4,349.1 358.4,347.4 624.3,59.5 627.2,61.2 				"/>
				<polygon class="st14" points="368.3,353.1 365.4,351.4 631.2,63.5 634.2,65.2 				"/>
			</g>
		</g>
	</g>
	<g class="st12">
		<g>
			<defs>
				<path id="SVGID_9_" d="M50.4,192.4c0,0,15.2,1.1,31.9,0c0,0-23.2,0.4,21.3,0c5.9,0,164.3,4.4,168.1,12s-20.3,16.5-20.3,16.5
					c0.1,9.4-64.4-12.8-77.1-4.5c-75.8,49-86.6,20.1-113.9,37c-11.6,7-61.4-40-61.4-40v-20.6h32.9L50.4,192.4z"/>
			</defs>
			<clipPath id="SVGID_10_">
				<use xlink:href="#SVGID_9_"  style="overflow:visible;"/>
			</clipPath>
			<g class="st17">
				<polygon class="st14" points="-97.3,213.6 -100.2,212.4 165.6,-3.3 168.6,-2 				"/>
				<polygon class="st14" points="-90.3,216.6 -93.3,215.3 172.5,-0.3 175.5,1 				"/>
				<polygon class="st14" points="-83.4,219.6 -86.4,218.3 179.5,2.7 182.5,4 				"/>
				<polygon class="st14" points="-76.5,222.6 -79.4,221.3 186.4,5.7 189.4,7 				"/>
				<polygon class="st14" points="-69.5,225.6 -72.5,224.3 193.4,8.7 196.3,10 				"/>
				<polygon class="st14" points="-62.6,228.6 -65.6,227.3 200.3,11.7 203.3,13 				"/>
				<polygon class="st14" points="-55.7,231.6 -58.6,230.3 207.2,14.7 210.2,16 				"/>
				<polygon class="st14" points="-48.7,234.6 -51.7,233.3 214.2,17.7 217.1,19 				"/>
				<polygon class="st14" points="-41.8,237.6 -44.8,236.3 221.1,20.7 224.1,21.9 				"/>
				<polygon class="st14" points="-34.9,240.6 -37.8,239.3 228,23.7 231,24.9 				"/>
				<polygon class="st14" points="-27.9,243.6 -30.9,242.3 235,26.6 237.9,27.9 				"/>
				<polygon class="st14" points="-21,246.6 -24,245.3 241.9,29.6 244.9,30.9 				"/>
				<polygon class="st14" points="-14,249.6 -17,248.3 248.8,32.6 251.8,33.9 				"/>
				<polygon class="st14" points="-7.1,252.5 -10.1,251.3 255.8,35.6 258.7,36.9 				"/>
				<polygon class="st14" points="-0.2,255.5 -3.1,254.3 262.7,38.6 265.7,39.9 				"/>
				<polygon class="st14" points="6.8,258.5 3.8,257.3 269.6,41.6 272.6,42.9 				"/>
				<polygon class="st14" points="13.7,261.5 10.7,260.2 276.6,44.6 279.5,45.9 				"/>
				<polygon class="st14" points="20.6,264.5 17.7,263.2 283.5,47.6 286.5,48.9 				"/>
				<polygon class="st14" points="27.6,267.5 24.6,266.2 290.4,50.6 293.4,51.9 				"/>
				<polygon class="st14" points="34.5,270.5 31.5,269.2 297.4,53.6 300.4,54.9 				"/>
				<polygon class="st14" points="41.4,273.5 38.5,272.2 304.3,56.6 307.3,57.9 				"/>
				<polygon class="st14" points="48.4,276.5 45.4,275.2 311.3,59.6 314.2,60.9 				"/>
				<polygon class="st14" points="55.3,279.5 52.3,278.2 318.2,62.6 321.2,63.9 				"/>
				<polygon class="st14" points="62.2,282.5 59.3,281.2 325.1,65.6 328.1,66.8 				"/>
				<polygon class="st14" points="69.2,285.5 66.2,284.2 332.1,68.6 335,69.8 				"/>
				<polygon class="st14" points="76.1,288.5 73.1,287.2 339,71.6 342,72.8 				"/>
				<polygon class="st14" points="83.1,291.5 80.1,290.2 345.9,74.5 348.9,75.8 				"/>
				<polygon class="st14" points="90,294.5 87,293.2 352.9,77.5 355.8,78.8 				"/>
				<polygon class="st14" points="96.9,297.5 93.9,296.2 359.8,80.5 362.8,81.8 				"/>
				<polygon class="st14" points="103.9,300.4 100.9,299.2 366.7,83.5 369.7,84.8 				"/>
				<polygon class="st14" points="110.8,303.4 107.8,302.2 373.7,86.5 376.6,87.8 				"/>
				<polygon class="st14" points="117.7,306.4 114.8,305.1 380.6,89.5 383.6,90.8 				"/>
				<polygon class="st14" points="124.7,309.4 121.7,308.1 387.5,92.5 390.5,93.8 				"/>
				<polygon class="st14" points="131.6,312.4 128.6,311.1 394.5,95.5 397.5,96.8 				"/>
				<polygon class="st14" points="138.5,315.4 135.6,314.1 401.4,98.5 404.4,99.8 				"/>
				<polygon class="st14" points="145.5,318.4 142.5,317.1 408.3,101.5 411.3,102.8 				"/>
				<polygon class="st14" points="152.4,321.4 149.4,320.1 415.3,104.5 418.3,105.8 				"/>
				<polygon class="st14" points="159.3,324.4 156.4,323.1 422.2,107.5 425.2,108.8 				"/>
				<polygon class="st14" points="166.3,327.4 163.3,326.1 429.2,110.5 432.1,111.7 				"/>
				<polygon class="st14" points="173.2,330.4 170.2,329.1 436.1,113.5 439.1,114.7 				"/>
				<polygon class="st14" points="180.1,333.4 177.2,332.1 443,116.5 446,117.7 				"/>
				<polygon class="st14" points="187.1,336.4 184.1,335.1 450,119.4 452.9,120.7 				"/>
			</g>
		</g>
	</g>
	<g>
		<path d="M590.6,193.8v454.7H0.4V193.8H590.6 M592,192.4H-1v457.5h593V192.4L592,192.4z"/>
	</g>
</g>
<circle class="st18" cx="200.5" cy="241.6" r="9.2"/>
</svg>
