<?xml version="1.0" encoding="utf-8"?>
<!-- Generator: Adobe Illustrator 18.1.1, SVG Export Plug-In . SVG Version: 6.00 Build 0)  -->
<svg version="1.1" id="Calque_1" xmlns="http://www.w3.org/2000/svg" xmlns:xlink="http://www.w3.org/1999/xlink" x="0px" y="0px"
	 viewBox="0 0 593 457.5" enable-background="new 0 0 593 457.5" xml:space="preserve">
<g>
	<g>
		<defs>
			<rect id="SVGID_1_" x="0" y="0" width="593" height="457.5"/>
		</defs>
		<clipPath id="SVGID_2_">
			<use xlink:href="#SVGID_1_"  overflow="visible"/>
		</clipPath>
		<g clip-path="url(#SVGID_2_)">
			<path fill="#C6C6C6" d="M587.1,306.6c-1.7,1.5-12.2,3.7-12.9,4.1c-0.7,0.4-8.7,2.2-11.1,2.8s-10.5,2.2-10.5,2.2s-7.4,2-9.4,2.4
				c-2,0.4-7.2,1.3-9.2,1.7c-2,0.4-7.6,1.1-9.8,1.7c-2.2,0.7-6.5,2.4-7.2,2.8c-0.7,0.4-3.1,1.3-3.1,1.3s-5.2-1.1-8.3-0.2
				c-3.1,0.9-2.4,0.4-5.7,1.1c-3.3,0.7-5.7,1.5-7.6,2.4c-2,0.9-2.8,2.8-5,2c-2.2-0.9-9.4-2.2-9.4-2.2l-7-0.2c0,0-9.8,2.6-10.7,3.3
				s-16.6,7-18.5,7.4c-2,0.4-19.4,5.9-20.5,5.9c-1.1,0-4.8,0.4-4.8,0.4l-8.9-0.4l-8.7,0.7l-11.3,6.5l-8.7-0.4l-13.3-2.4
				c0,0-24-5.5-30.1-5.9c-6.1-0.4-13.4,0.5-15.8,0.8c-2.4,0.4-20.6,4.6-20.6,4.6s-3.3,0.7-4.4,1.3c-1.1,0.7-6.5,1.7-8.5,1.7
				c-2,0-10.8-0.8-10.8-0.8s-19.9,8.5-24.1,9.6c-4.1,1.1-21.4,8.3-21.4,8.3s-36,5.9-36.4,7.2c-0.4,1.3-15.5,6.8-18.3,7.8
				c-2.8,1.1-20.3,9.2-22,9.6c-1.7,0.4-21.2,7.9-23.1,8.7c-2,0.9-11.8,5.9-13.3,6.3c-1.5,0.4-9.6,2.4-10.9,2.6
				c-1.3,0.2-23.3,2.2-23.3,2.2l-30.3,5.7c0,0-37.3,9.4-38,9.8c-0.7,0.4-24.4,4.8-24.4,4.8l-7.9,4.4l2,18.5c0,0,0.7-0.4,3.5,0
				c2.8,0.4,5.9,1.1,10.7,0c4.8-1.1,14.2-9.4,17.7-11.1c3.5-1.7,14.6-5.7,18.1-6.8c3.5-1.1,13.1-2.2,14.4-2.6
				c1.3-0.4,7.2-3.5,7.2-3.5l9.4-3.7h2.6c0,0,7.4,3.7,8.3,4.6c0.9,0.9,7.4,1.1,7.4,1.1s7.2-1.5,8.3-1.5s15.1-5.5,15.9-5.9
				c0.9-0.4,4.1-3.5,4.1-3.5l7.6-4.4l14.2-7.4c0,0,5.2-0.7,5.9,0c0.7,0.7,4.1,1.3,4.1,1.3l24-7.6l8.7-3.9c0,0,4.4-1.1,6.3-1.7
				s8.3-2.8,8.3-2.8s4.8-3.5,7-4.4c2.2-0.9,5.7-2,7.4-2.4c1.7-0.4,13.3-4.1,14.6-4.4c1.3-0.2,8.9-1.1,12.4-2.4
				c3.5-1.3,11.1-3.1,13.5-3.9c2.4-0.9,12.4-3.1,13.7-3.5c1.3-0.4,9.6-3.1,10.9-3.5c1.3-0.4,8.5-1.7,9.2-2.6c0.7-0.9,10.3,0,10.3,0
				l5.2-0.4c0,0,10.7-2,11.8-2.9c1.1-0.9,6.5-1.3,10.5-1.5s20.9,0.4,25.5,0c4.6-0.4,29.5,0,29.5,0l3.3-0.2l4.4,1.7l5.9,2.2
				c0,0,33.8,1.3,36.7,1.1c2.8-0.2,9.4,1.3,12,0.9c2.6-0.4,11.8-5.9,11.8-5.9l15.9-6.1c0,0,10.7-5.7,11.3-5.9
				c0.7-0.2,5.2-1.5,5.2-1.5l1.3,1.3l2.8-0.2c0,0,3.9-0.7,4.6-1.1S500,350,500,350h6.3h5.2c0,0,17.9-5.5,18.5-5.7
				c0.7-0.2,14.6-3.7,14.6-3.7l8.1-7.2l11.1-8.9h12.4l10.3,3.1l6.3-8.9v-13.1C593,305.5,588.8,305.1,587.1,306.6z M10,440.6
				c-1.7,0.9-6.5,3.9-9.2,5.2c-2.6,1.3-7.4,0.2-10.7,0c-3.3-0.2-6.5-1.3-6.5-1.3v-3.7l12-4.6l4.4-1.1h3.7h4.4l3.7,3.5
				C11.8,438.6,11.8,439.7,10,440.6z M47.6,427.3c-0.9,0.4-8.1,1.7-8.1,1.7H34c0,0,3.9-2.8,4.8-2.8s4.4,0.2,4.4,0.2l9.8-3.1l12-3.5
				l4.8,1.7C69.8,421.6,48.4,426.8,47.6,427.3z M100.1,427.3l-6.3,1.7l-13.5,2.4l-7.4-4.1l5.9-3.7l26.6-2L100.1,427.3z M248.7,373.8
				c0,0-2.4-1.3-3.3-1.5c-0.9-0.2-6.8-0.2-7.4,0c-0.7,0.2-3.1,2.6-3.1,2.6l-1.3,3.3h-16.8l7-2.6l6.3-2.2l5.7-1.1l8.7-2h1.7h1.3
				l2,1.8L248.7,373.8z M291.7,363.6l-8.1,1.1l-16.1,1.3l-8.1,4.4l-7.4-3.3c0,0,7.9-5.2,8.9-5.9c1.1-0.7,11.3-1.1,11.3-1.1l16.4,0.9
				l3.9,0.7L291.7,363.6z M344.3,351.4l-2.6,0.9l-3.9,0.4l-5.5,3.3h-3.1l-4.1-2.2c0,0-10.3-1.1-14.2-1.5c-3.9-0.4-7.9-0.9-7.9-0.9
				l8.5-2.2c0,0,9.2-1.5,10.3-1.7c1.1-0.2,5.9-1.1,7.2-1.3c1.3-0.2,3.5,0,3.5,0s5.5,1.5,6.8,1.7c1.3,0.2,5,2,5,2V351.4z
				 M440.3,343.1h7.4h4.6l-1.5,4.1l-7.2,2.6c0,0-2.8,3.3-5.9,3.6c-3.1,0.3-9.4,1-9.4,1l-2.2-5.5L440.3,343.1z M421.9,351l1.7,2.6
				l-2.2,2.4h-5l-2.2-4.4L421.9,351z M471.5,351c-0.7,0.7-13.3,2.8-14,2.8s-19,3.9-19.9,4.1c-0.9,0.2-7.9,4.4-7.9,4.4
				s-7.9,0.2-9.8,0c-2-0.2-8.3-0.7-12.4-2.2c-4.1-1.5-5.7,0-5.7,0l-3.5-4.1l11.8-4.4l6.3,6l3.5-0.4l6.8-0.2l5.7,0.9l17-4.6
				c0,0,2.8-3.9,3.3-4.6c0.4-0.7,6.5-3.9,6.5-3.9s12-2,12.7-2.4c0.7-0.4,8.5-1.5,8.5-1.5l3.7,5.4C484.1,346,472.1,350.3,471.5,351z
				 M527.5,337.4l-1.7,3.3c0,0-3.3-0.2-3.9,0c-0.7,0.2-6.3,1.5-6.3,1.5l-26.6,0.9l-9.8-4.8h-8.3l6.3-3.1l16.8,3.1l4.1,1.3l13.5-2.2
				l17.7-5l3.1-1.3l7.2,0.9L527.5,337.4z"/>
			<path fill="none" stroke="#000000" stroke-width="3.927" stroke-linecap="round" stroke-miterlimit="10" d="M302.8,372.6
				l-19.2-70.7l78.5-99.9c0,0,12.7-13.5,12.2-17.9c-0.4-4.4-5.7-17.5,19.6-40.6c25.3-23.1,13.1-4.8,31.4-21.4
				c18.3-16.6,41.5-54.5,41.5-54.5l80.5-109.1"/>
			<path fill="none" stroke="#000000" stroke-width="3.927" stroke-linecap="round" stroke-miterlimit="10" d="M447.7,331.1
				c-12.7-7-14.4-41-14.8-47.6c-0.4-6.5-14.8-47.1-16.1-49.3c-1.3-2.2-19.2-33.6-34-45.4s-33.2-15.7-48.9-18.3
				c-15.7-2.6-14.8,7.9-31,11.8c-16.1,3.9-44.9,0.9-53.7-2.2s-17.9-0.4-24,3.5c-6.1,3.9-30.5,14.8-30.5,14.8l-10,6.5l-3.5-2.2
				l-12.7-14.8h-27.9c0,0-10.9-16.1-8.7-28.8s-0.9-24.9-3.9-27.5c-3.1-2.6-10.5-11.8-10.5-11.8L43.2-35.9"/>
			<path fill="none" stroke="#000000" stroke-width="1.9635" stroke-linecap="round" stroke-miterlimit="10" d="M602.5,298.6
				c0,0-76.3,15.9-87.6,17.7c-11.3,1.7-75,17-75,17s-9.6,8.7-16.1,9.6c-6.5,0.9-12.2,2.2-17.5,0c-5.2-2.2-23.1-6.1-28.4-6.5
				c-5.2-0.4-31,0-34.5,1.3s-20.5,6.4-20.5,6.4s-52.4,7.5-59.8,9.7c-7.4,2.2-32.7,14.8-64.1,21.4s-70.7,27.9-75.9,28.4
				C117.8,403.9,49.3,417,38,421s-43.6,10.5-43.6,10.5"/>
			<path fill="none" stroke="#000000" stroke-width="3.927" stroke-linecap="round" stroke-miterlimit="10" d="M283.6,301.8
				c0,0-31-19.6-42.8-31c-11.8-11.3-38.8-41.5-38.8-41.5l-18.3-20.9l0.9-3.5"/>
			<path fill="none" stroke="#000000" stroke-width="5.236" stroke-linecap="round" stroke-miterlimit="10" d="M161.9,470.7
				c0,0,5.2-18.3,6.1-21.8c0.9-3.5-0.4-10,0-11.3c0.4-1.3-8.7-18.3-8.7-18.3s-7.4-34.4-7-37.7c0.4-3.3,4.8-12.5,5.2-16.4
				c0.4-3.9-19.6-44.1-24-45.4c-4.4-1.3-21.8-12.2-23.1-21.8c-1.3-9.6-1.7-17.9,0-21.4s-0.6-12.7-1.2-26.2s-4.2-37.1,0-41
				c4.2-3.9,14.2-14,17.3-16.6c3.1-2.6,17.5-10,19.2-10s26.2-6.5,28.4-6.5s7,3.1,4.4,5.7c-2.6,2.6-12.2,6.1-12.2,6.1"/>
			<path fill="none" stroke="#000000" stroke-width="5.236" stroke-linecap="round" stroke-miterlimit="10" d="M403.2,475.9
				c0,0-21.8-68.1-22.3-70.3c-0.4-2.2-7-10.9-3.5-17.9s22.9-38,24.1-42.1c1.2-4.1,8.2-18.1,11.7-22.3s7.4-9.4,22.7-15.3
				s27.1-20.3,31-29.9s11.8-46.3,11.8-46.3l21.8-120.4c0,0,1.7-20.9,47.1-57.2c45.4-36.2,48-70.3,48-70.3"/>
			<path fill="none" stroke="#000000" stroke-width="1.9635" stroke-linecap="round" stroke-miterlimit="10" d="M262.7,287.8
				c0,0-3.5-30.1-6.1-41c-2.6-10.9-9.6-49.3,3.1-89.9c12.6-40.6-2.1-99.5-2.1-99.5l-5.2-45.8l-22.8-53.5"/>
			
				<line fill="none" stroke="#000000" stroke-width="0.6545" stroke-linecap="round" stroke-miterlimit="10" x1="337.3" y1="-45.9" x2="252.3" y2="11.7"/>
			<path fill="none" stroke="#000000" stroke-width="1.9635" stroke-linecap="round" stroke-miterlimit="10" d="M0,263.4
				c0,0,23.6-15.3,27.1-17s17-23.1,16.1-27.5c-0.9-4.4,8.3-17.5,14.4-25.3c6.1-7.9,7-17.5,14.4-17.5c7.4,0,14.8-1.3,20.1,0
				s11.1,0.9,15.2,2.2c4,1.3,14.9,4.4,12.8-6.5c-2.2-10.9-1.7-24.9,2.2-24.2c3.9,0.7,0-18.5,0-18.5s3.5-2.9,6.5-6
				c3.1-3.2,11.1-8.8,14.5-19.3c3.4-10.5-5.1-22.7,0-24c5.1-1.3,46.6,4.8,48.8,4.4c2.2-0.4,0.4-19.2,23.1-31s38.6-28.9,38.6-28.9"/>
			<path fill="none" stroke="#000000" stroke-width="3.927" stroke-linecap="round" stroke-miterlimit="10" d="M-5.7,67.5
				c0,0,21.8,7.4,41.5,22.3s21.4,22.3,30.5,27.1c9.2,4.8,18.8,5.4,28.8,6.2c10,0.8,27.1,6,27.1,6l5.7,2.6"/>
			<path fill="none" stroke="#000000" stroke-width="1.9635" stroke-linecap="round" stroke-miterlimit="10" d="M333.1-43.1
				c0,0-7.1,49.5-6.3,54.7s7.4,25.3,13.5,41.5s13.5,27.5,15.7,41c2.2,13.5-4.4,34.4-9.6,49.7c-5.2,15.3-7.9,56.8-4.8,65.5
				s25.8,23.1,28.4,25.3c2.6,2.2-0.9,18.8,0,24c0.9,5.2-3.9,50.6-3.5,56.7c0.4,6.1-7.9,38-7.9,38l-6.1,13.7l3.1,28.1l-90.9,22.3
				L245.4,383l-55,14.4L154,412.7v10.5l11.5,8.3"/>
			
				<line fill="none" stroke="#000000" stroke-width="1.9635" stroke-linecap="round" stroke-miterlimit="10" x1="311.9" y1="405.9" x2="331.2" y2="475.9"/>
			<path fill="none" stroke="#000000" stroke-width="1.9635" stroke-linecap="round" stroke-miterlimit="10" d="M245.4,383
				c0,0,29-6.1,31.6-6.1c2.6,0,48.4-6.5,48.4-6.5s35.3-6.1,38.8-3.3c3.5,2.8,30.1,3.3,30.1,3.3s59.8,1.3,62,1.7
				c2.2,0.4,21.4-5.8,21.4-5.8l25.3-13.9c0,0,28-8.3,29.8-8.8c1.7-0.4,34.4-9.1,34.4-9.1l49.4,0.1"/>
			<path fill="none" stroke="#000000" stroke-width="1.9635" stroke-linecap="round" stroke-miterlimit="10" d="M475.6,457.5
				c0,0-20.1-38.3-20.9-43.1c-0.9-4.8-3.5-21.4-1.7-26.6c1.7-5.2,9-16.7,9-16.7"/>
			<path fill="none" stroke="#000000" stroke-width="1.9635" stroke-linecap="round" stroke-miterlimit="10" d="M355.6,395.2
				L371,383c0,0,8.2-8.7,19.5-6.1c11.3,2.6,25.7,4.8,27.1,6.1s30.1-1.5,30.1-1.5h8.1"/>
			<circle fill="none" stroke="#000000" stroke-width="7.4892" stroke-miterlimit="10" cx="201.5" cy="49.2" r="12.8"/>
			<path fill="none" stroke="#FFFFFF" stroke-width="1.309" stroke-linecap="round" stroke-miterlimit="10" d="M161.9,470.7
				c0,0,5.2-18.3,6.1-21.8c0.9-3.5-0.4-10,0-11.3c0.4-1.3-8.7-18.3-8.7-18.3s-7.4-34.4-7-37.7c0.4-3.3,4.8-12.5,5.2-16.4
				c0.4-3.9-19.6-44.1-24-45.4c-4.4-1.3-21.8-12.2-23.1-21.8c-1.3-9.6-1.7-17.9,0-21.4s-0.6-12.7-1.2-26.2s-4.2-37.1,0-41
				c4.2-3.9,14.2-14,17.3-16.6c3.1-2.6,17.5-10,19.2-10s26.2-6.5,28.4-6.5s7,3.1,4.4,5.7c-2.6,2.6-12.2,6.1-12.2,6.1"/>
			<path fill="none" stroke="#FFFFFF" stroke-width="1.309" stroke-linecap="round" stroke-miterlimit="10" d="M403.2,475.9
				c0,0-21.8-68.1-22.3-70.3c-0.4-2.2-7-10.9-3.5-17.9s22.9-38,24.1-42.1c1.2-4.1,8.2-18.1,11.7-22.3s7.4-9.4,22.7-15.3
				s27.1-20.3,31-29.9s11.8-46.3,11.8-46.3l21.8-120.4c0,0,1.7-20.9,47.1-57.2c45.4-36.2,48-70.3,48-70.3"/>
		</g>
	</g>
	
		<text transform="matrix(0.9777 -0.2101 0.2101 0.9777 280.9085 399.9529)" font-family="'SourceCodePro-Regular'" font-size="13.1061">TOURS</text>
	<text transform="matrix(0.9708 -0.2401 0.2401 0.9708 233.5867 332.0083)"><tspan x="0" y="0" font-family="'SourceCodePro-Regular'" font-size="13.1061">ST CYR</tspan><tspan x="-23.6" y="15.7" font-family="'SourceCodePro-Regular'" font-size="13.1061">SUR LOIRE</tspan></text>
	<g>
		<text transform="matrix(0.9706 -0.2406 0.2406 0.9706 140.633 138.4208)"><tspan x="0" y="0" font-family="'SourceCodePro-Regular'" font-size="13.1061">LA</tspan><tspan x="0" y="15.7" font-family="'SourceCodePro-Regular'" font-size="13.1061">MEMBROLLE</tspan></text>
	</g>
	<g>
		
			<text transform="matrix(0.9695 -0.2449 0.2449 0.9695 123.6891 77.4333)" font-family="'SourceCodePro-Regular'" font-size="13.1061">METTRAY</text>
	</g>
	<g opacity="0.5">
		<defs>
			<path id="SVGID_3_" opacity="0.5" d="M593,31.1c0,0-22.7,36.6-37.2,45.5s-28.1,22.9-30,28.5s-7,22.6-3.3,35.4
				c3.7,12.8,18.3,21.4,8.9,40.5s-17.3,27-25.3,44.1s-8.4,29.2-13.6,40.5c-5.1,11.3-11.7,20.2-11.7,20.2l7,10.1l105.1-7.4V31.1z"/>
		</defs>
		<clipPath id="SVGID_4_">
			<use xlink:href="#SVGID_3_"  overflow="visible"/>
		</clipPath>
		<g clip-path="url(#SVGID_4_)">
			
				<rect x="433.1" y="-56.6" transform="matrix(0.8079 0.5893 -0.5893 0.8079 136.1622 -239.1914)" fill="#B2B2B2" width="3.7" height="291.8"/>
			
				<rect x="440.1" y="-51.6" transform="matrix(0.8079 0.5893 -0.5893 0.8079 140.4761 -242.3068)" fill="#B2B2B2" width="3.7" height="291.8"/>
			
				<rect x="447" y="-46.5" transform="matrix(0.8079 0.5893 -0.5893 0.8079 144.7899 -245.4221)" fill="#B2B2B2" width="3.7" height="291.8"/>
			
				<rect x="453.9" y="-41.5" transform="matrix(0.8079 0.5893 -0.5893 0.8079 149.1038 -248.5374)" fill="#B2B2B2" width="3.7" height="291.8"/>
			
				<rect x="460.9" y="-36.4" transform="matrix(0.8079 0.5893 -0.5893 0.8079 153.4177 -251.6528)" fill="#B2B2B2" width="3.7" height="291.8"/>
			
				<rect x="467.8" y="-31.3" transform="matrix(0.8079 0.5893 -0.5893 0.8079 157.7315 -254.7681)" fill="#B2B2B2" width="3.7" height="291.8"/>
			
				<rect x="474.7" y="-26.3" transform="matrix(0.8079 0.5893 -0.5893 0.8079 162.0454 -257.8834)" fill="#B2B2B2" width="3.7" height="291.8"/>
			
				<rect x="481.7" y="-21.2" transform="matrix(0.8079 0.5893 -0.5893 0.8079 166.3593 -260.9987)" fill="#B2B2B2" width="3.7" height="291.8"/>
			
				<rect x="488.6" y="-16.2" transform="matrix(0.8079 0.5893 -0.5893 0.8079 170.6731 -264.1141)" fill="#B2B2B2" width="3.7" height="291.8"/>
			
				<rect x="495.5" y="-11.1" transform="matrix(0.8079 0.5893 -0.5893 0.8079 174.987 -267.2294)" fill="#B2B2B2" width="3.7" height="291.8"/>
			
				<rect x="502.5" y="-6" transform="matrix(0.8079 0.5893 -0.5893 0.8079 179.3009 -270.3447)" fill="#B2B2B2" width="3.7" height="291.8"/>
			
				<rect x="509.4" y="-1" transform="matrix(0.8079 0.5893 -0.5893 0.8079 183.6148 -273.4601)" fill="#B2B2B2" width="3.7" height="291.8"/>
			
				<rect x="516.3" y="4.1" transform="matrix(0.8079 0.5893 -0.5893 0.8079 187.9286 -276.5754)" fill="#B2B2B2" width="3.7" height="291.8"/>
			
				<rect x="523.3" y="9.1" transform="matrix(0.8079 0.5893 -0.5893 0.8079 192.2425 -279.6907)" fill="#B2B2B2" width="3.7" height="291.8"/>
			
				<rect x="530.2" y="14.2" transform="matrix(0.8079 0.5893 -0.5893 0.8079 196.5564 -282.8061)" fill="#B2B2B2" width="3.7" height="291.8"/>
			
				<rect x="537.2" y="19.3" transform="matrix(0.8079 0.5893 -0.5893 0.8079 200.8702 -285.9214)" fill="#B2B2B2" width="3.7" height="291.8"/>
			
				<rect x="544.1" y="24.3" transform="matrix(0.8079 0.5893 -0.5893 0.8079 205.1841 -289.0367)" fill="#B2B2B2" width="3.7" height="291.8"/>
			
				<rect x="551" y="29.4" transform="matrix(0.8079 0.5893 -0.5893 0.8079 209.498 -292.152)" fill="#B2B2B2" width="3.7" height="291.8"/>
			
				<rect x="558" y="34.4" transform="matrix(0.8079 0.5893 -0.5893 0.8079 213.8118 -295.2674)" fill="#B2B2B2" width="3.7" height="291.8"/>
			
				<rect x="564.9" y="39.5" transform="matrix(0.8079 0.5893 -0.5893 0.8079 218.1257 -298.3827)" fill="#B2B2B2" width="3.7" height="291.8"/>
			
				<rect x="571.8" y="44.6" transform="matrix(0.8079 0.5893 -0.5893 0.8079 222.4396 -301.498)" fill="#B2B2B2" width="3.7" height="291.8"/>
			
				<rect x="578.8" y="49.6" transform="matrix(0.8079 0.5893 -0.5893 0.8079 226.7535 -304.6134)" fill="#B2B2B2" width="3.7" height="291.8"/>
			
				<rect x="585.7" y="54.7" transform="matrix(0.8079 0.5893 -0.5893 0.8079 231.0673 -307.7287)" fill="#B2B2B2" width="3.7" height="291.8"/>
			
				<rect x="592.6" y="59.7" transform="matrix(0.8079 0.5893 -0.5893 0.8079 235.3812 -310.8441)" fill="#B2B2B2" width="3.7" height="291.8"/>
			
				<rect x="599.6" y="64.8" transform="matrix(0.8079 0.5893 -0.5893 0.8079 239.6951 -313.9593)" fill="#B2B2B2" width="3.7" height="291.8"/>
			
				<rect x="606.5" y="69.9" transform="matrix(0.8079 0.5893 -0.5893 0.8079 244.0089 -317.0747)" fill="#B2B2B2" width="3.7" height="291.8"/>
			
				<rect x="613.4" y="74.9" transform="matrix(0.8079 0.5893 -0.5893 0.8079 248.3228 -320.19)" fill="#B2B2B2" width="3.7" height="291.8"/>
			
				<rect x="620.4" y="80" transform="matrix(0.8079 0.5893 -0.5893 0.8079 252.6366 -323.3054)" fill="#B2B2B2" width="3.7" height="291.8"/>
			
				<rect x="627.3" y="85" transform="matrix(0.8079 0.5893 -0.5893 0.8079 256.9505 -326.4207)" fill="#B2B2B2" width="3.7" height="291.8"/>
			
				<rect x="634.3" y="90.1" transform="matrix(0.8079 0.5893 -0.5893 0.8079 261.2644 -329.536)" fill="#B2B2B2" width="3.7" height="291.8"/>
			
				<rect x="641.2" y="95.1" transform="matrix(0.8079 0.5893 -0.5893 0.8079 265.5783 -332.6513)" fill="#B2B2B2" width="3.7" height="291.8"/>
			
				<rect x="648.1" y="100.2" transform="matrix(0.8079 0.5893 -0.5893 0.8079 269.8922 -335.7666)" fill="#B2B2B2" width="3.7" height="291.8"/>
			
				<rect x="655.1" y="105.3" transform="matrix(0.8079 0.5893 -0.5893 0.8079 274.206 -338.882)" fill="#B2B2B2" width="3.7" height="291.8"/>
			
				<rect x="662" y="110.3" transform="matrix(0.8079 0.5893 -0.5893 0.8079 278.5199 -341.9973)" fill="#B2B2B2" width="3.7" height="291.8"/>
			
				<rect x="668.9" y="115.4" transform="matrix(0.8079 0.5893 -0.5893 0.8079 282.8337 -345.1126)" fill="#B2B2B2" width="3.7" height="291.8"/>
			
				<rect x="675.9" y="120.4" transform="matrix(0.8079 0.5893 -0.5893 0.8079 287.1476 -348.228)" fill="#B2B2B2" width="3.7" height="291.8"/>
			
				<rect x="682.8" y="125.5" transform="matrix(0.8079 0.5893 -0.5893 0.8079 291.4615 -351.3433)" fill="#B2B2B2" width="3.7" height="291.8"/>
			
				<rect x="689.7" y="130.6" transform="matrix(0.8079 0.5893 -0.5893 0.8079 295.7754 -354.4586)" fill="#B2B2B2" width="3.7" height="291.8"/>
			
				<rect x="696.7" y="135.6" transform="matrix(0.8079 0.5893 -0.5893 0.8079 300.0892 -357.5739)" fill="#B2B2B2" width="3.7" height="291.8"/>
			
				<rect x="703.6" y="140.7" transform="matrix(0.8079 0.5893 -0.5893 0.8079 304.4031 -360.6893)" fill="#B2B2B2" width="3.7" height="291.8"/>
			
				<rect x="710.5" y="145.7" transform="matrix(0.8079 0.5893 -0.5893 0.8079 308.717 -363.8047)" fill="#B2B2B2" width="3.7" height="291.8"/>
			
				<rect x="717.5" y="150.8" transform="matrix(0.8079 0.5893 -0.5893 0.8079 313.0309 -366.92)" fill="#B2B2B2" width="3.7" height="291.8"/>
		</g>
	</g>
	<g opacity="0.5">
		<defs>
			<path id="SVGID_5_" opacity="0.5" d="M0,163.5c0,0,0-102.1,10.3-71.7c5.5,16.1,100.4,37.2,99.5,62.5
				c-0.2,5.9-25.3,27.7-21.5,40.5c3.7,12.8,2,47,2.1,68.3c0.1,15.9,11.3,15.7,3.4,32.8s24.5,32.9,34.1,40.6
				c12.9,10.3,9.1,34.7,9.1,34.7l-12.2,24.6L0,420.9V163.5z"/>
		</defs>
		<clipPath id="SVGID_6_">
			<use xlink:href="#SVGID_5_"  overflow="visible"/>
		</clipPath>
		<g clip-path="url(#SVGID_6_)">
			
				<rect x="-112.9" y="-68.2" transform="matrix(0.8079 0.5893 -0.5893 0.8079 71.3693 95.6745)" fill="#B2B2B2" width="3.7" height="451.1"/>
			
				<rect x="-106" y="-63.2" transform="matrix(0.8079 0.5893 -0.5893 0.8079 75.6832 92.5592)" fill="#B2B2B2" width="3.7" height="451.1"/>
			
				<rect x="-99" y="-58.1" transform="matrix(0.8079 0.5893 -0.5893 0.8079 79.997 89.4439)" fill="#B2B2B2" width="3.7" height="451.1"/>
			
				<rect x="-92.1" y="-53.1" transform="matrix(0.8079 0.5893 -0.5893 0.8079 84.3109 86.3285)" fill="#B2B2B2" width="3.7" height="451.1"/>
			
				<rect x="-85.2" y="-48" transform="matrix(0.8079 0.5893 -0.5893 0.8079 88.6248 83.2132)" fill="#B2B2B2" width="3.7" height="451.1"/>
			
				<rect x="-78.2" y="-43" transform="matrix(0.8079 0.5893 -0.5893 0.8079 92.9386 80.0979)" fill="#B2B2B2" width="3.7" height="451.1"/>
			
				<rect x="-71.3" y="-37.9" transform="matrix(0.8079 0.5893 -0.5893 0.8079 97.2525 76.9825)" fill="#B2B2B2" width="3.7" height="451.1"/>
			
				<rect x="-64.4" y="-32.8" transform="matrix(0.8079 0.5893 -0.5893 0.8079 101.5664 73.8672)" fill="#B2B2B2" width="3.7" height="451.1"/>
			
				<rect x="-57.4" y="-27.8" transform="matrix(0.8079 0.5893 -0.5893 0.8079 105.8802 70.7519)" fill="#B2B2B2" width="3.7" height="451.1"/>
			
				<rect x="-50.5" y="-22.7" transform="matrix(0.8079 0.5893 -0.5893 0.8079 110.1941 67.6365)" fill="#B2B2B2" width="3.7" height="451.1"/>
			
				<rect x="-43.6" y="-17.7" transform="matrix(0.8079 0.5893 -0.5893 0.8079 114.508 64.5212)" fill="#B2B2B2" width="3.7" height="451.1"/>
			
				<rect x="-36.6" y="-12.6" transform="matrix(0.8079 0.5893 -0.5893 0.8079 118.8219 61.4059)" fill="#B2B2B2" width="3.7" height="451.1"/>
			
				<rect x="-29.7" y="-7.5" transform="matrix(0.8079 0.5893 -0.5893 0.8079 123.1357 58.2906)" fill="#B2B2B2" width="3.7" height="451.1"/>
			
				<rect x="-22.7" y="-2.5" transform="matrix(0.8079 0.5893 -0.5893 0.8079 127.4496 55.1752)" fill="#B2B2B2" width="3.7" height="451.1"/>
			
				<rect x="-15.8" y="2.6" transform="matrix(0.8079 0.5893 -0.5893 0.8079 131.7635 52.0599)" fill="#B2B2B2" width="3.7" height="451.1"/>
			
				<rect x="-8.9" y="7.6" transform="matrix(0.8079 0.5893 -0.5893 0.8079 136.0773 48.9445)" fill="#B2B2B2" width="3.7" height="451.1"/>
			
				<rect x="-1.9" y="12.7" transform="matrix(0.8079 0.5893 -0.5893 0.8079 140.3912 45.8292)" fill="#B2B2B2" width="3.7" height="451.1"/>
			
				<rect x="5" y="17.8" transform="matrix(0.8079 0.5893 -0.5893 0.8079 144.7051 42.7139)" fill="#B2B2B2" width="3.7" height="451.1"/>
			
				<rect x="11.9" y="22.8" transform="matrix(0.8079 0.5893 -0.5893 0.8079 149.0189 39.5986)" fill="#B2B2B2" width="3.7" height="451.1"/>
			
				<rect x="18.9" y="27.9" transform="matrix(0.8079 0.5893 -0.5893 0.8079 153.3328 36.4832)" fill="#B2B2B2" width="3.7" height="451.1"/>
			
				<rect x="25.8" y="32.9" transform="matrix(0.8079 0.5893 -0.5893 0.8079 157.6467 33.3679)" fill="#B2B2B2" width="3.7" height="451.1"/>
			
				<rect x="32.7" y="38" transform="matrix(0.8079 0.5893 -0.5893 0.8079 161.9606 30.2526)" fill="#B2B2B2" width="3.7" height="451.1"/>
			
				<rect x="39.7" y="43.1" transform="matrix(0.8079 0.5893 -0.5893 0.8079 166.2744 27.1372)" fill="#B2B2B2" width="3.7" height="451.1"/>
			
				<rect x="46.6" y="48.1" transform="matrix(0.8079 0.5893 -0.5893 0.8079 170.5883 24.0219)" fill="#B2B2B2" width="3.7" height="451.1"/>
			
				<rect x="53.5" y="53.2" transform="matrix(0.8079 0.5893 -0.5893 0.8079 174.9022 20.9066)" fill="#B2B2B2" width="3.7" height="451.1"/>
			
				<rect x="60.5" y="58.2" transform="matrix(0.8079 0.5893 -0.5893 0.8079 179.216 17.7913)" fill="#B2B2B2" width="3.7" height="451.1"/>
			
				<rect x="67.4" y="63.3" transform="matrix(0.8079 0.5893 -0.5893 0.8079 183.5299 14.6759)" fill="#B2B2B2" width="3.7" height="451.1"/>
			
				<rect x="74.4" y="68.4" transform="matrix(0.8079 0.5893 -0.5893 0.8079 187.8438 11.5606)" fill="#B2B2B2" width="3.7" height="451.1"/>
			
				<rect x="81.3" y="73.4" transform="matrix(0.8079 0.5893 -0.5893 0.8079 192.1576 8.4452)" fill="#B2B2B2" width="3.7" height="451.1"/>
			
				<rect x="88.2" y="78.5" transform="matrix(0.8079 0.5893 -0.5893 0.8079 196.4715 5.3299)" fill="#B2B2B2" width="3.7" height="451.1"/>
			
				<rect x="95.2" y="83.5" transform="matrix(0.8079 0.5893 -0.5893 0.8079 200.7854 2.2146)" fill="#B2B2B2" width="3.7" height="451.1"/>
			
				<rect x="102.1" y="88.6" transform="matrix(0.8079 0.5893 -0.5893 0.8079 205.0993 -0.9007)" fill="#B2B2B2" width="3.7" height="451.1"/>
			
				<rect x="109" y="93.6" transform="matrix(0.8079 0.5893 -0.5893 0.8079 209.4131 -4.016)" fill="#B2B2B2" width="3.7" height="451.1"/>
			
				<rect x="116" y="98.7" transform="matrix(0.8079 0.5893 -0.5893 0.8079 213.727 -7.1314)" fill="#B2B2B2" width="3.7" height="451.1"/>
			
				<rect x="122.9" y="103.8" transform="matrix(0.8079 0.5893 -0.5893 0.8079 218.0409 -10.2467)" fill="#B2B2B2" width="3.7" height="451.1"/>
			
				<rect x="129.8" y="108.8" transform="matrix(0.8079 0.5893 -0.5893 0.8079 222.3547 -13.3621)" fill="#B2B2B2" width="3.7" height="451.1"/>
			
				<rect x="136.8" y="113.9" transform="matrix(0.8079 0.5893 -0.5893 0.8079 226.6686 -16.4774)" fill="#B2B2B2" width="3.7" height="451.1"/>
			
				<rect x="143.7" y="118.9" transform="matrix(0.8079 0.5893 -0.5893 0.8079 230.9825 -19.5927)" fill="#B2B2B2" width="3.7" height="451.1"/>
			
				<rect x="150.6" y="124" transform="matrix(0.8079 0.5893 -0.5893 0.8079 235.2963 -22.708)" fill="#B2B2B2" width="3.7" height="451.1"/>
			
				<rect x="157.6" y="129.1" transform="matrix(0.8079 0.5893 -0.5893 0.8079 239.6102 -25.8234)" fill="#B2B2B2" width="3.7" height="451.1"/>
			
				<rect x="164.5" y="134.1" transform="matrix(0.8079 0.5893 -0.5893 0.8079 243.9241 -28.9387)" fill="#B2B2B2" width="3.7" height="451.1"/>
			
				<rect x="171.4" y="139.2" transform="matrix(0.8079 0.5893 -0.5893 0.8079 248.238 -32.054)" fill="#B2B2B2" width="3.7" height="451.1"/>
		</g>
	</g>
	<g opacity="0.5">
		<defs>
			<path id="SVGID_7_" opacity="0.5" d="M353.8,0c0,0,15.2,1.4,31.9,0c0,0-23.2,0.5,21.3,0c5.9-0.1,27.7,1.9,31.4,12
				c3.7,10.1,75.8-10.5,75.8-10.5c0.1,12.5-5.1,6.5-13.1,20s-72.1,65.4-99.5,87.9c-11.4,9.4-30.7,21.4-30.7,21.4l-14-75.9L335.3,0.5
				L353.8,0z"/>
		</defs>
		<clipPath id="SVGID_8_">
			<use xlink:href="#SVGID_7_"  overflow="visible"/>
		</clipPath>
		<g clip-path="url(#SVGID_8_)">
			<polygon fill="#B2B2B2" points="85,-3.2 82,-4.9 347.9,-292.8 350.8,-291 			"/>
			<polygon fill="#B2B2B2" points="91.9,0.8 88.9,-0.9 354.8,-288.8 357.8,-287 			"/>
			<polygon fill="#B2B2B2" points="98.8,4.8 95.9,3.1 361.7,-284.8 364.7,-283 			"/>
			<polygon fill="#B2B2B2" points="105.8,8.8 102.8,7.1 368.7,-280.8 371.6,-279.1 			"/>
			<polygon fill="#B2B2B2" points="112.7,12.8 109.7,11.1 375.6,-276.8 378.6,-275.1 			"/>
			<polygon fill="#B2B2B2" points="119.7,16.8 116.7,15.1 382.5,-272.8 385.5,-271.1 			"/>
			<polygon fill="#B2B2B2" points="126.6,20.8 123.6,19.1 389.5,-268.8 392.4,-267.1 			"/>
			<polygon fill="#B2B2B2" points="133.5,24.8 130.6,23.1 396.4,-264.8 399.4,-263.1 			"/>
			<polygon fill="#B2B2B2" points="140.5,28.8 137.5,27.1 403.3,-260.8 406.3,-259.1 			"/>
			<polygon fill="#B2B2B2" points="147.4,32.8 144.4,31.1 410.3,-256.8 413.2,-255.1 			"/>
			<polygon fill="#B2B2B2" points="154.3,36.8 151.4,35.1 417.2,-252.8 420.2,-251.1 			"/>
			<polygon fill="#B2B2B2" points="161.3,40.8 158.3,39.1 424.1,-248.8 427.1,-247.1 			"/>
			<polygon fill="#B2B2B2" points="168.2,44.8 165.2,43.1 431.1,-244.8 434.1,-243.1 			"/>
			<polygon fill="#B2B2B2" points="175.1,48.8 172.2,47.1 438,-240.8 441,-239.1 			"/>
			<polygon fill="#B2B2B2" points="182.1,52.8 179.1,51.1 445,-236.8 447.9,-235.1 			"/>
			<polygon fill="#B2B2B2" points="189,56.8 186,55.1 451.9,-232.8 454.9,-231.1 			"/>
			<polygon fill="#B2B2B2" points="195.9,60.8 193,59.1 458.8,-228.8 461.8,-227.1 			"/>
			<polygon fill="#B2B2B2" points="202.9,64.8 199.9,63.1 465.8,-224.8 468.7,-223.1 			"/>
			<polygon fill="#B2B2B2" points="209.8,68.8 206.8,67.1 472.7,-220.8 475.7,-219.1 			"/>
			<polygon fill="#B2B2B2" points="216.7,72.8 213.8,71.1 479.6,-216.8 482.6,-215.1 			"/>
			<polygon fill="#B2B2B2" points="223.7,76.8 220.7,75.1 486.6,-212.8 489.5,-211.1 			"/>
			<polygon fill="#B2B2B2" points="230.6,80.8 227.6,79 493.5,-208.8 496.5,-207.1 			"/>
			<polygon fill="#B2B2B2" points="237.6,84.8 234.6,83 500.4,-204.8 503.4,-203.1 			"/>
			<polygon fill="#B2B2B2" points="244.5,88.8 241.5,87 507.4,-200.8 510.3,-199.1 			"/>
			<polygon fill="#B2B2B2" points="251.4,92.8 248.5,91 514.3,-196.8 517.3,-195.1 			"/>
			<polygon fill="#B2B2B2" points="258.4,96.7 255.4,95 521.2,-192.8 524.2,-191.1 			"/>
			<polygon fill="#B2B2B2" points="265.3,100.7 262.3,99 528.2,-188.9 531.1,-187.1 			"/>
			<polygon fill="#B2B2B2" points="272.2,104.7 269.3,103 535.1,-184.9 538.1,-183.1 			"/>
			<polygon fill="#B2B2B2" points="279.2,108.7 276.2,107 542,-180.9 545,-179.1 			"/>
			<polygon fill="#B2B2B2" points="286.1,112.7 283.1,111 549,-176.9 552,-175.1 			"/>
			<polygon fill="#B2B2B2" points="293,116.7 290.1,115 555.9,-172.9 558.9,-171.2 			"/>
			<polygon fill="#B2B2B2" points="300,120.7 297,119 562.9,-168.9 565.8,-167.2 			"/>
			<polygon fill="#B2B2B2" points="306.9,124.7 303.9,123 569.8,-164.9 572.8,-163.2 			"/>
			<polygon fill="#B2B2B2" points="313.8,128.7 310.9,127 576.7,-160.9 579.7,-159.2 			"/>
			<polygon fill="#B2B2B2" points="320.8,132.7 317.8,131 583.7,-156.9 586.6,-155.2 			"/>
			<polygon fill="#B2B2B2" points="327.7,136.7 324.7,135 590.6,-152.9 593.6,-151.2 			"/>
			<polygon fill="#B2B2B2" points="334.6,140.7 331.7,139 597.5,-148.9 600.5,-147.2 			"/>
			<polygon fill="#B2B2B2" points="341.6,144.7 338.6,143 604.5,-144.9 607.4,-143.2 			"/>
			<polygon fill="#B2B2B2" points="348.5,148.7 345.5,147 611.4,-140.9 614.4,-139.2 			"/>
			<polygon fill="#B2B2B2" points="355.5,152.7 352.5,151 618.3,-136.9 621.3,-135.2 			"/>
			<polygon fill="#B2B2B2" points="362.4,156.7 359.4,155 625.3,-132.9 628.2,-131.2 			"/>
			<polygon fill="#B2B2B2" points="369.3,160.7 366.4,159 632.2,-128.9 635.2,-127.2 			"/>
		</g>
	</g>
	<g opacity="0.5">
		<defs>
			<path id="SVGID_9_" opacity="0.5" d="M51.4,0c0,0,15.2,1.1,31.9,0c0,0-23.2,0.4,21.3,0c5.9,0,164.3,4.4,168.1,12
				s-20.3,16.5-20.3,16.5c0.1,9.4-64.4-12.8-77.1-4.5c-75.8,49-86.6,20.1-113.9,37C49.8,68,0,21,0,21L0,0.4l32.9,0L51.4,0z"/>
		</defs>
		<clipPath id="SVGID_10_">
			<use xlink:href="#SVGID_9_"  overflow="visible"/>
		</clipPath>
		<g clip-path="url(#SVGID_10_)">
			<polygon fill="#B2B2B2" points="-96.3,21.2 -99.2,20 166.6,-195.7 169.6,-194.4 			"/>
			<polygon fill="#B2B2B2" points="-89.3,24.2 -92.3,22.9 173.5,-192.7 176.5,-191.4 			"/>
			<polygon fill="#B2B2B2" points="-82.4,27.2 -85.4,25.9 180.5,-189.7 183.5,-188.4 			"/>
			<polygon fill="#B2B2B2" points="-75.5,30.2 -78.4,28.9 187.4,-186.7 190.4,-185.4 			"/>
			<polygon fill="#B2B2B2" points="-68.5,33.2 -71.5,31.9 194.4,-183.7 197.3,-182.4 			"/>
			<polygon fill="#B2B2B2" points="-61.6,36.2 -64.6,34.9 201.3,-180.7 204.3,-179.4 			"/>
			<polygon fill="#B2B2B2" points="-54.7,39.2 -57.6,37.9 208.2,-177.7 211.2,-176.4 			"/>
			<polygon fill="#B2B2B2" points="-47.7,42.2 -50.7,40.9 215.2,-174.7 218.1,-173.4 			"/>
			<polygon fill="#B2B2B2" points="-40.8,45.2 -43.8,43.9 222.1,-171.7 225.1,-170.5 			"/>
			<polygon fill="#B2B2B2" points="-33.9,48.2 -36.8,46.9 229,-168.7 232,-167.5 			"/>
			<polygon fill="#B2B2B2" points="-26.9,51.2 -29.9,49.9 236,-165.8 238.9,-164.5 			"/>
			<polygon fill="#B2B2B2" points="-20,54.2 -23,52.9 242.9,-162.8 245.9,-161.5 			"/>
			<polygon fill="#B2B2B2" points="-13,57.2 -16,55.9 249.8,-159.8 252.8,-158.5 			"/>
			<polygon fill="#B2B2B2" points="-6.1,60.1 -9.1,58.9 256.8,-156.8 259.7,-155.5 			"/>
			<polygon fill="#B2B2B2" points="0.8,63.1 -2.1,61.9 263.7,-153.8 266.7,-152.5 			"/>
			<polygon fill="#B2B2B2" points="7.8,66.1 4.8,64.9 270.6,-150.8 273.6,-149.5 			"/>
			<polygon fill="#B2B2B2" points="14.7,69.1 11.7,67.8 277.6,-147.8 280.5,-146.5 			"/>
			<polygon fill="#B2B2B2" points="21.6,72.1 18.7,70.8 284.5,-144.8 287.5,-143.5 			"/>
			<polygon fill="#B2B2B2" points="28.6,75.1 25.6,73.8 291.4,-141.8 294.4,-140.5 			"/>
			<polygon fill="#B2B2B2" points="35.5,78.1 32.5,76.8 298.4,-138.8 301.4,-137.5 			"/>
			<polygon fill="#B2B2B2" points="42.4,81.1 39.5,79.8 305.3,-135.8 308.3,-134.5 			"/>
			<polygon fill="#B2B2B2" points="49.4,84.1 46.4,82.8 312.3,-132.8 315.2,-131.5 			"/>
			<polygon fill="#B2B2B2" points="56.3,87.1 53.3,85.8 319.2,-129.8 322.2,-128.5 			"/>
			<polygon fill="#B2B2B2" points="63.2,90.1 60.3,88.8 326.1,-126.8 329.1,-125.6 			"/>
			<polygon fill="#B2B2B2" points="70.2,93.1 67.2,91.8 333.1,-123.8 336,-122.6 			"/>
			<polygon fill="#B2B2B2" points="77.1,96.1 74.1,94.8 340,-120.8 343,-119.6 			"/>
			<polygon fill="#B2B2B2" points="84.1,99.1 81.1,97.8 346.9,-117.9 349.9,-116.6 			"/>
			<polygon fill="#B2B2B2" points="91,102.1 88,100.8 353.9,-114.9 356.8,-113.6 			"/>
			<polygon fill="#B2B2B2" points="97.9,105.1 94.9,103.8 360.8,-111.9 363.8,-110.6 			"/>
			<polygon fill="#B2B2B2" points="104.9,108 101.9,106.8 367.7,-108.9 370.7,-107.6 			"/>
			<polygon fill="#B2B2B2" points="111.8,111 108.8,109.8 374.7,-105.9 377.6,-104.6 			"/>
			<polygon fill="#B2B2B2" points="118.7,114 115.8,112.7 381.6,-102.9 384.6,-101.6 			"/>
			<polygon fill="#B2B2B2" points="125.7,117 122.7,115.7 388.5,-99.9 391.5,-98.6 			"/>
			<polygon fill="#B2B2B2" points="132.6,120 129.6,118.7 395.5,-96.9 398.5,-95.6 			"/>
			<polygon fill="#B2B2B2" points="139.5,123 136.6,121.7 402.4,-93.9 405.4,-92.6 			"/>
			<polygon fill="#B2B2B2" points="146.5,126 143.5,124.7 409.3,-90.9 412.3,-89.6 			"/>
			<polygon fill="#B2B2B2" points="153.4,129 150.4,127.7 416.3,-87.9 419.3,-86.6 			"/>
			<polygon fill="#B2B2B2" points="160.3,132 157.4,130.7 423.2,-84.9 426.2,-83.6 			"/>
			<polygon fill="#B2B2B2" points="167.3,135 164.3,133.7 430.2,-81.9 433.1,-80.7 			"/>
			<polygon fill="#B2B2B2" points="174.2,138 171.2,136.7 437.1,-78.9 440.1,-77.7 			"/>
			<polygon fill="#B2B2B2" points="181.1,141 178.2,139.7 444,-75.9 447,-74.7 			"/>
			<polygon fill="#B2B2B2" points="188.1,144 185.1,142.7 451,-73 453.9,-71.7 			"/>
		</g>
	</g>
	<g>
		<path d="M591.6,1.4v454.7H1.4V1.4H591.6 M593,0H0v457.5h593V0L593,0z"/>
	</g>
</g>
<circle fill="#F9DA58" cx="201.5" cy="49.2" r="9.2"/>
</svg>
