<?xml version="1.0" encoding="utf-8"?>
<!-- Generator: Adobe Illustrator 18.1.1, SVG Export Plug-In . SVG Version: 6.00 Build 0)  -->
<svg version="1.1" id="Calque_1" xmlns="http://www.w3.org/2000/svg" xmlns:xlink="http://www.w3.org/1999/xlink" x="0px" y="0px"
	 viewBox="0 0 244.5 203.9" enable-background="new 0 0 244.5 203.9" xml:space="preserve">
<g>
	<path fill="#FFFFFF" d="M244.5,203.9H0L122.2,0L244.5,203.9z M22.5,191.2H222L122.2,24.8L22.5,191.2z"/>
	<g>
		<path fill="#FFFFFF" d="M107,155.9c0-4.2,1.3-7.6,4-10.2c2.7-2.6,6-3.9,10-3.9c4,0,7.4,1.3,10,3.9c2.7,2.6,4,6,4,10.2
			c0,4.2-1.3,7.6-4,10.3c-2.7,2.7-6,4-10,4c-4,0-7.4-1.3-10-4C108.3,163.5,107,160.1,107,155.9z M111.5,93.3l-0.7-18.6h20.5
			l-0.7,18.6l-2.8,39.5h-13.5L111.5,93.3z"/>
	</g>
</g>
</svg>
